<?xml version="1.0" encoding="utf-8"?>
<!DOCTYPE svg PUBLIC "-//W3C//DTD SVG 1.1//EN" "http://www.w3.org/Graphics/SVG/1.1/DTD/svg11.dtd">
<svg version="1.1" id="Layer_1" xmlns="http://www.w3.org/2000/svg" xmlns:xlink="http://www.w3.org/1999/xlink" x="0px" y="0px"
	 viewBox="0 0 1321.1147 817.4398" enable-background="new 0 0 1321.1147 817.4398" xml:space="preserve">
<g>
	<path d="M21.5574,413.7199c4.0231-4.0638,2.4896-9.7333,3.9172-14.5612c6.2111-21.0045,16.1204-40.1282,27.9258-58.3141
		c15.1887-23.3979,32.9564-44.6417,54.743-62.2951c23.5007-19.0423,48.7879-35.2228,75.7961-48.9258
		c24.0287-12.1913,48.9039-22.3416,73.9317-32.0932c21.6819-8.4479,43.2752-17.0743,64.7368-26.0575
		c2.9786-1.2468,5.028-3.1334,6.9695-5.3799c15.5942-18.0435,33.782-32.7359,55.4457-42.9218
		c17.7909-8.365,36.8357-11.0683,55.8492-7.9857c22.9254,3.7168,40.8988,17.2164,56.1289,34.3732
		c0.8673,0.9771,2.1682,2.0646,1.3594,3.4563c-0.8576,1.4758-2.3976,0.4129-3.6459,0.3254
		c-16.4518-1.1535-32.9861-2.7888-49.3679-0.5209c-12.2671,1.6983-23.236,7.4789-33.0375,15.1274
		c-10.1439,7.9156-18.9689,17.2024-27.5143,26.7825c-2.265,2.5391-2.2167,4.396,0.3545,6.5958
		c21.3294,18.2481,45.0794,29.5595,74.0647,26.4796c5.9422-0.6314,11.9875-0.2509,17.7519-2.3352
		c1.211-0.4379,2.8716-0.687,3.7736,0.4404c1.1643,1.4554-0.4716,2.4652-1.2809,3.2921
		c-13.0056,13.2867-25.7386,27.0295-43.1293,34.7566c-11.7308,5.2122-23.9231,6.8916-36.9369,4.6921
		c-24.6386-4.1642-42.1247-19.1119-58.1728-36.5895c-2.293-2.4973-3.7155-4.6171-8.0779-2.4284
		c-29.1257,14.6122-60.484,23.6829-90.5639,35.9406c-29.4746,12.0111-57.7323,26.1806-78.5126,51.4675
		c-16.5785,20.1738-30.2303,42.0809-39.3005,66.7738c-4.5284,12.3281-8.3518,24.6273-9.4754,37.8286
		c-2.6823,31.515,6.6947,58.3862,29.2733,80.7172c17.6342,17.4407,38.5417,29.3228,61.5712,38.0143
		c18.0164,6.7995,36.5545,11.0103,55.5282,14.2282c24.5597,4.1652,49.0479,3.8448,73.6161,1.6048
		c36.3382-3.3132,68.0343-16.6869,95.9681-40.9355c33.8509-29.385,68.9729-57.3496,104.2285-85.0591
		c29.5826-23.2508,60.2269-45.1488,93.4064-63.1573c9.415-5.1101,19.0315-9.8951,28.7993-14.2872
		c4.0515-1.8217,3.2762-3.1006,0.8818-5.4325c-13.4847-13.133-26.0215-27.1307-37.9287-41.7014
		c-16.6293-20.3492-31.632-41.7831-42.9117-65.6045c-8.2467-17.4159-7.2777-34.9792,0.1447-52.4408
		c1.8712-4.4021,4.0231-8.7155,5.4825-13.251c0.9293-2.888,2.5121-4.2338,4.989-3.0003c2.741,1.3652,7.6749,0.5412,7.2512,5.7968
		c-0.4011,4.9748-1.4016,9.9201-1.5356,14.8946c-1.2481,46.3021,16.9663,84.0011,50.961,114.6745
		c11.2259,10.1292,22.4712,20.2388,33.563,30.5136c4.3975,4.0736,9.9291,3.9057,15.0187,3.9527
		c11.6655,0.1078,23.1415-2.0469,34.0979-6.0946c8.8176-3.2577,17.2946-7.4346,26.1005-10.7283
		c5.0053-1.8721,3.136-3.3709,0.4236-5.4338c-13.2701-10.0924-25.4752-21.3353-36.4938-33.8567
		c-17.2463-19.5985-30.2711-41.6815-40.1768-65.8459c-8.0432-19.6211-12.8201-40.0022-15.7898-60.7962
		c-4.1568-29.1067,1.801-56.3787,17.0911-81.5502c5.1657-8.5041,10.3981-16.9256,17.4687-24.0951
		c3.1639-3.2081,5.8939-5.15,10.1928-2.0205c1.6957,1.2344,3.8315,2.0624,5.8914,2.5567c4.25,1.0199,3.9293,3.0322,1.9958,6.1095
		c-7.8408,12.4796-16.0825,24.7045-23.2419,37.6173c-6.4481,11.63-9.6213,24.1568-9.156,37.2112
		c0.431,12.0914,0.4407,24.2138,2.6152,36.3112c2.407,13.3912,5.3462,26.5159,9.6385,39.4263
		c11.0241,33.1582,29.9941,60.7714,56.9363,82.9475c3.5884,2.9536,7.736,5.3344,10.9123,8.6606
		c7.6306,7.9908,15.5326,6.4767,24.6408,2.6962c15.8307-6.5707,32.0593-12.1828,48.1229-18.1921
		c0.3105-0.1161,0.6521-0.1488,0.9635-0.2632c7.5244-2.7643,7.5614-2.8939,2.0348-8.7094
		c-19.9161-20.9571-37.1179-43.8253-48.2724-70.6985c-4.8683-11.729-8.2745-23.9584-10.9294-36.4691
		c-4.1079-19.3574-5.0603-38.8482-4.3826-58.4763c0.5037-14.5857,5.4897-28.1606,10.6117-41.6177
		c3.8516-10.119,9.1288-19.5122,15.5028-28.2626c4.2692-5.8609,9.1381-10.6987,16.8203-12.2318
		c6.266-1.2505,7.8898,3.8725,11.0108,6.8568c2.5726,2.46,0.3363,4.8048-1.0615,7.0707
		c-5.3009,8.5934-10.4137,17.3049-15.8169,25.8328c-9.2094,14.5354-14.0437,30.2981-13.7819,47.5393
		c0.2752,18.1315-0.171,36.3368,3.1647,54.2588c4.5255,24.3143,14.1953,46.4399,29.4056,66.0359
		c9.9777,12.8544,20.0765,25.6152,29.9992,38.5116c2.2013,2.8609,4.2673,3.6368,8.0375,2.7619
		c22.1956-5.1511,43.8934-13.3491,67.2981-11.5815c1.8406,0.139,4.2888,0.9212,5.4531-1.3079
		c1.1224-2.1488-1.239-3.2513-2.2003-4.6013c-11.4582-16.0925-25.0325-30.5846-35.886-47.13
		c-10.5368-16.0626-16.4984-33.7281-18.1364-52.9095c-0.7217-8.4518-1.5422-16.8926-2.2278-25.3477
		c-1.6155-19.9224,5.2554-37.0575,15.1625-53.582c13.6805-22.8185,31.2241-42.4721,49.6188-61.4674
		c4.7073-4.8611,8.1458,0.6811,12.098,1.4384c2.7877,0.5342,4.3569,2.456,4.0491,6.2141
		c-0.8292,10.1221-5.5671,18.215-11.7012,25.7992c-10.8705,13.4403-23.5585,25.2903-33.9608,39.1598
		c-6.7276,8.9701-11.0684,18.4034-11.6347,29.9519c-1.7803,36.303,8.8915,68.5223,29.9997,97.7481
		c9.144,12.6606,19.0884,24.696,28.3864,37.1945c6.1076,8.21,14.0625,10.1278,22.8141,11.946
		c13.2712,2.7573,26.5004,5.7171,39.7693,8.4857c6.4816,1.3523,13.0228,2.4166,19.5176,3.7097
		c3.4374,0.6843,3.3308-1.4556,2.7101-3.502c-4.3099-14.21-8.969-28.3179-13.0553-42.5906
		c-3.7253-13.0114-6.5759-26.2744-10.3502-39.2702c-4.0327-13.8859-6.3234-28.1078-8.4891-42.3136
		c-1.1924-7.8224-0.5526-15.9499-0.4196-23.9345c0.045-2.7032,1.933-4.7966,3.9674-6.6733
		c24.2493-22.3701,51.8007-39.7295,81.6387-53.5289c9.723-4.4967,20.1447-7.5762,29.5848-12.5581
		c6.3322-3.3418,11.4318-8.9788,17.2021-13.4345c11.5649-8.9299,23.7305-16.8527,37.5975-21.8432
		c16.3475-5.8831,32.796-7.9714,50.2336-4.628c24.3875,4.676,43.3702,17.3262,58.7933,36.1178
		c1.3799,1.6812,4.2163,3.4217,3.0231,5.7952c-1.177,2.3413-4.265,1.1856-6.4642,1.1287
		c-16.373-0.4236-32.6013,1.2669-48.3828,5.2488c-11.4403,2.8866-21.5789,9.1564-30.5687,16.9765
		c-2.6448,2.3007-0.9082,4.0579,0.8173,5.8064c10.9525,11.0993,23.5292,19.7696,37.8776,25.9707
		c8.6534,3.7398,17.2435,7.5624,26.4762,9.6805c1.2423,0.285,2.1053,1.0123,2.3273,2.3069
		c0.2656,1.5491-1.0366,1.8367-1.9996,2.4552c-21.7333,13.9576-44.3732,24.8349-71.3354,20.9691
		c-13.2622-1.9015-24.9597-7.4389-35.4583-15.6085c-6.8119-5.3007-14.2532-10.0512-20.0778-16.2936
		c-6.6401-7.1166-13.012-5.6498-20.4884-2.6523c-22.7561,9.1236-42.8955,22.7353-63.1726,36.1625
		c-3.4872,2.3091-4.3549,4.7386-3.2939,8.7697c1.9911,7.5659,2.0723,15.4973,2.8887,23.2148
		c2.1138,19.986,5.3513,39.8051,7.9612,59.708c2.2821,17.4022,5.9716,34.6181,8.9203,51.9366
		c0.4243,2.4915,2.0442,3.7443,3.8361,4.882c23.3507,14.8266,46.7341,29.6016,70.0992,44.4054
		c2.8781,1.8234,5.2563,1.8276,7.9719-0.7261c13.3751-12.5768,28.3344-22.8403,45.1733-30.3009
		c10.3088-4.5674,21.1331-6.6831,32.3252-7.2043c3.9686-0.1848,3.4403,2.6284,2.7052,4.7769
		c-4.1637,12.1697-8.3945,24.3205-12.885,36.3725c-1.7351,4.6572-0.6982,7.0764,3.8555,9.3929
		c20.6342,10.4962,41.7683,20.2538,58.1538,37.449c3.5049,3.6781,3.9344,5.9064-0.2728,9.4588
		c-18.2048,15.3713-37.9373,28.4442-58.9601,39.523c-6.611,3.4839-3.3956,8.1205-2.5729,12.3728
		c1.7252,8.9167,4.0226,17.7213,5.9736,26.5964c0.8201,3.7306-0.3625,5.4789-4.6898,5.1874
		c-26.4915-1.7849-51.5341-7.4926-72.068-25.801c-2.5762-2.2969-4.6534-1.4774-7.1362,0.0998
		c-19.8527,12.6118-39.3063,25.9514-59.8224,37.3803c-11.3256,6.3091-14.814,13.6967-14.2377,26.314
		c1.1403,24.9683-2.6718,49.7267-6.1215,74.4678c-2.2001,15.7775-4.3552,31.5398-7.413,47.1726
		c-0.5521,2.8233,0.066,5.0729,2.2504,7.153c19.916,18.9657,41.3405,35.7939,66.5928,47.2053
		c3.6737,1.6603,6.5093,3.0812,8.8967-3.033c6.5927-16.8831,15.761-32.2273,32.342-41.5351
		c11.8966-6.6782,24.9141-9.6415,38.2976-11.1099c8.1066-0.8893,16.2709-1.2698,24.4158-1.7734
		c1.5789-0.0977,3.7681-1.017,4.6575,0.567c1.0294,1.8328-0.9515,3.3798-2.0121,4.7001
		c-8.3156,10.3523-17.1527,20.2967-23.7021,31.9725c-7.8184,13.938-9.2019,29.267-9.6614,44.7355
		c-0.1659,5.5803,5.4889,5.1658,8.7897,6.4203c15.589,5.925,31.9679,5.9407,48.2438,4.7457
		c9.0344-0.6633,17.9591-2.9944,26.6096-5.9274c3.4996-1.1866,5.7109-1.1272,4.7175,3.4891
		c-4.9343,22.9284-24.2677,58.9391-55.3413,66.9516c-4.7844,1.2336-10.4453,0.023-14.5087,3.9706c-6.6666,0-13.3334,0-20,0
		c-2.8323-3.1672-6.9064-1.7756-10.3357-2.78c-15.1782-4.4454-29.3844-11.1078-42.797-19.3276
		c-48.2236-29.5535-89.4186-67.1356-125.377-110.6187c-1.3651-1.6508-3.0714-3.2963-3.0269-5.6082
		c0.2434-12.6423-0.2466-25.323,1.4664-37.8994c1.6768-12.3104,3.2589-24.6362,6.0281-36.7761
		c2.1689-9.5093,4.0515-19.0836,6.1265-28.6149c2.6034-11.9579,5.2931-23.897,7.9023-35.8537
		c0.7922-3.6306-0.8706-4.9741-4.3699-4.3119c-5.0465,0.955-10.0863,1.9443-15.1278,2.925
		c-15.1013,2.9379-30.2728,5.5679-45.264,8.9886c-5.1945,1.1853-11.7088,0.0385-14.7937,6.9
		c-14.3188,31.8487-26.6453,64.3239-33.6034,98.6979c-4.1691,20.5962-7.1417,41.2816-6.2359,62.3107
		c0.3721,8.6387,2.4666,17.1257,7.5598,24.4252c5.0251,7.202,11.3083,13.7282,15.1788,21.48
		c4.3066,8.6254,6.5735,18.2797,9.5838,27.5331c0.6448,1.9821,1.3038,4.2565-1.1656,5.8179
		c-2.4216,1.5309-4.8041,2.2803-7.3979,0.3991c-2.8201-2.0454-5.8725-3.8193-8.4734-6.1094
		c-7.6445-6.731-18.6723-10.0513-21.7298-21.4622c-0.6372-2.3782-1.9873-4.598-2.405-6.9959
		c-1.0559-6.0602-7.1809-9.9543-7.2137-16.2006c-0.167-31.8391-4.007-63.7624,3.4501-95.408
		c4.4885-19.0475,11.1868-37.2363,18.3896-55.3328c4.3334-10.8876,8.2333-21.9506,12.1518-32.9973
		c0.6153-1.7344,1.6255-4.0976-0.0853-5.6257c-1.5109-1.3495-3.4111,0.0619-5.1672,0.4441
		c-5.9709,1.2994-11.9492,3.131-17.9904,3.4291c-14.6435,0.7224-29.3238,0.4919-43.9641-0.5612
		c-3.4441-0.2477-5.6686,0.52-7.8409,3.7075c-12.6366,18.5421-23.0824,38.2467-31.8398,58.8469
		c-7.78,18.3012-13.3568,37.371-16.746,56.9129c-2.4667,14.2226-3.1078,28.7123-3.1394,43.2351
		c-0.0317,14.576,3.858,28.0823,8.7863,41.4917c5.3516,14.5614,11.3264,28.9205,14.7134,44.1316
		c0.4173,1.8742,1.2525,4.5043-0.7376,5.5336c-2.0968,1.0845-4.2945,2.7733-7.3507,1.1413
		c-4.5745-2.4427-7.986-5.9205-10.7881-10.0602c-9.0804-13.4155-14.8146-28.2191-18.9996-43.85
		c-3.1996-11.9507-6.2208-24.0353-5.6225-36.2431c0.8834-18.0214,1.4658-36.0893,5.6044-53.9401
		c3.8967-16.8074,8.663-33.2426,15.3445-49.0551c9.0442-21.4043,21.1335-41.2476,33.1498-61.0729
		c2.2588-3.7268,1.1597-5.2521-2.1851-6.075c-5.3047-1.3052-10.6917-2.2972-16.0698-3.2791
		c-15.4752-2.8255-30.6353-6.8129-45.0999-13.0209c-3.4792-1.4932-5.6024-1.0393-7.7302,1.6834
		c-6.1308,7.8453-12.6313,15.4293-18.3502,23.5634c-15.2806,21.734-27.5886,45.0489-36.4513,70.1671
		c-4.7435,13.444-8.7482,27.1274-10.6332,41.192c-1.7206,12.8381-2.6889,26.094,0.2852,38.788
		c3.3094,14.1256,4.8177,28.0878,2.5424,42.4009c-0.3998,2.5147-0.4061,5.4322-4.1752,5.8619
		c-3.7245,0.4244-5.1901-2.1288-6.2056-4.6785c-5.9969-15.0565-9.155-30.7899-9.752-46.9325
		c-0.8651-23.3939,2.5986-46.2382,8.8644-68.8148c5.8318-21.0134,15.2195-40.4124,25.0957-59.6459
		c8.7855-17.1093,19.0129-33.3655,29.9247-49.1925c1.1396-1.6528,2.9586-3.6991-0.0982-4.6774
		c-6.1197-1.9583-12.3441-3.8491-18.6704-4.8445c-11.0203-1.7339-22.144-2.7691-33.2443-0.1858
		c-11.5612,2.6906-22.1412,4.6975-29.9922,16.6699c-18.4417,28.1222-37.8779,55.5067-51.4851,86.4866
		c-9.2148,20.9796-14.9835,42.4307-11.0578,65.6094c1.0859,6.4123,1.1917,12.7542-1.4473,19.0669
		c-1.4789,3.5378-2.9233,3.1409-4.9832,1.1403c-3.7508-3.6429-6.3026-7.8765-7.2726-13.22
		c-2.9761-16.3934-2.6097-32.6186-0.2456-49.1408c2.2317-15.5975,6.6352-30.3804,13.0276-44.5386
		c8.3978-18.5999,18.6833-36.1877,31.4041-52.2563c0.6695-0.8456,1.4787-2.2783,1.1863-3.0397
		c-0.5724-1.4906-2.3405-1.0155-3.5378-0.7621c-2.5844,0.547-5.0641,1.774-7.659,2.0551
		c-15.2241,1.6497-29.8701,5.9285-44.4387,10.2155c-23.8055,7.0051-46.3529,17.3172-68.6863,28.0265
		c-43.4926,20.8553-87.0634,41.434-133.8569,54.2103c-18.1983,4.9686-36.666,7.8062-55.3892,8.617
		c-29.4858,1.2769-58.7436-0.7849-87.8092-6.549c-14.7823-2.9316-29.5067-6.0816-43.889-10.3586
		c-25.3381-7.5347-49.839-17.3579-73.0319-30.2136c-34.3364-19.0324-64.013-43.1733-85.2338-76.816
		c-11.0381-17.4994-19.1346-36.027-23.6339-56.3339c-1.4606-6.5924,0.07-13.7721-3.8629-19.8252
		C21.5574,430.3865,21.5574,422.0532,21.5574,413.7199z M901.1052,424.0386c-0.1796,10.6028-2.7181,23.7739-7.5568,36.6677
		c-6.1284,16.3306-15.5395,31.3524-18.9142,48.8156c-0.9922,5.1341,1.2814,6.4054,5.0379,6.9522
		c4.465,0.65,7.2131-2.5574,9.2405-5.718c5.7424-8.9518,9.4255-18.8748,12.527-29.0034c3.2428-10.59,5.921-21.3165,7.9721-32.2119
		c2.1194-11.2578,5.163-22.4886,2.8112-34.0082c-1.7676-8.6579-1.8843-17.4644-3.293-26.1788
		c-3.2956-20.3878-8.0249-40.2287-17.3045-58.7093c-4.9369-9.8319-10.6815-19.337-22.9645-21.7303
		c-2.1633-0.4215-3.8508-0.311-5.4423,1.3355c-1.7615,1.8224-1.7933,3.8641-1.0623,6.0214
		c2.5121,7.4124,6.2376,14.1147,10.9717,20.4035c6.56,8.7145,12.3317,17.9092,16.8868,27.9457
		C898.171,382.5907,899.7933,401.678,901.1052,424.0386z M1010.6182,395.9954c-0.4437-5.3406-0.3417-10.5902-1.3899-15.599
		c-4.3965-21.0069-9.4841-41.8452-18.4046-61.5015c-3.3393-7.3582-6.2131-15.0821-12.6946-20.478
		c-2.6493-2.2055-5.4308-3.809-8.8582-0.8423c-3.2205,2.7876-1.9875,5.7743-0.6235,8.5223
		c8.3056,16.7318,17.1821,33.168,23.7056,50.7605c4.7851,12.9044,7.8372,26.1638,7.4934,39.7979
		c-0.5321,21.1036-7.3272,40.94-14.5449,60.5389c-4.9424,13.4208-8.6142,27.1023-10.1354,41.3434
		c-0.448,4.1941,1.7359,7.6126,4.8267,9.1389c3.1462,1.5537,5.0944-2.006,6.665-4.5068
		c5.8908-9.3794,8.3883-20.0629,11.1113-30.5579c3.3611-12.9551,5.7379-26.1401,8.025-39.3507
		C1007.9486,420.8165,1009.7748,408.3782,1010.6182,395.9954z M809.5357,424.5693c-0.1771-2.1162-0.1688-3.6338-0.4471-5.0967
		c-3.4384-18.071-8.3638-35.7379-16.3319-52.3365c-3.5427-7.3801-7.1503-15.017-13.7969-20.4402
		c-4.5593-3.7199-8.9812-2.3427-12.499,1.2002c-3.3199,3.3435,0.2371,6.2885,2.1533,8.5747
		c8.6755,10.3506,15.9866,21.5267,21.4964,33.8494c8.9745,20.0715,9.1287,40.5008,1.8198,61.017
		c-4.3185,12.122-9.0677,24.0936-13.7902,36.067c-1.5463,3.9208,0.1769,6.3561,2.9757,8.5522
		c2.9313,2.2999,5.0289-0.2536,7.0007-1.6138c2.4786-1.7096,3.8636-4.5189,5.1339-7.2335
		c4.4236-9.4533,7.5384-19.3103,10.1549-29.4391C806.2797,446.5427,807.3325,435.174,809.5357,424.5693z M715.7887,437.8709
		c0.6146,6.4402-1.7043,13.3395-5.3674,19.7452c-3.1121,5.4425-7.8716,9.8181-10.365,15.7349
		c-1.8159,4.3091,0.2149,7.0758,3.3559,9.3914c3.2458,2.3929,5.7822,0.6092,7.5832-2.0667
		c8.7936-13.0651,16.3777-27.0444,16.1106-43.0463c-0.3294-19.7388-9.564-36.8101-20.0608-53.0484
		c-3.8844-6.0091-8.1523-11.6741-14.9495-14.9059c-4.345-2.0659-8.1804-1.0208-10.7494,2.2627
		c-2.3923,3.0576,1.2656,5.0778,3.0905,6.9003c5.7764,5.7693,11.4075,11.6728,16.2721,18.218
		C709.4567,408.8264,715.9695,421.5218,715.7887,437.8709z"/>
</g>
</svg>
