<?xml version="1.0" encoding="UTF-8" standalone="no"?>
<!-- Created with Inkscape (http://www.inkscape.org/) -->

<svg
   xmlns:dc="http://purl.org/dc/elements/1.1/"
   xmlns:cc="http://creativecommons.org/ns#"
   xmlns:rdf="http://www.w3.org/1999/02/22-rdf-syntax-ns#"
   xmlns:svg="http://www.w3.org/2000/svg"
   xmlns="http://www.w3.org/2000/svg"
   xmlns:sodipodi="http://sodipodi.sourceforge.net/DTD/sodipodi-0.dtd"
   xmlns:inkscape="http://www.inkscape.org/namespaces/inkscape"
   width="98.711159mm"
   height="94.039291mm"
   viewBox="0 0 349.76395 333.21009"
   id="svg3430"
   version="1.1"
   inkscape:version="0.91 r13725"
   sodipodi:docname="trees_4.svg">
  <defs
     id="defs3432" />
  <sodipodi:namedview
     id="base"
     pagecolor="#ffffff"
     bordercolor="#666666"
     borderopacity="1.0"
     inkscape:pageopacity="0.0"
     inkscape:pageshadow="2"
     inkscape:zoom="1.5011719"
     inkscape:cx="202.74784"
     inkscape:cy="190.12084"
     inkscape:document-units="px"
     inkscape:current-layer="layer1"
     showgrid="false"
     fit-margin-top="0"
     fit-margin-left="0"
     fit-margin-right="0"
     fit-margin-bottom="0"
     inkscape:window-width="1236"
     inkscape:window-height="679"
     inkscape:window-x="-5"
     inkscape:window-y="0"
     inkscape:window-maximized="0" />
  <metadata
     id="metadata3435">
    <rdf:RDF>
      <cc:Work
         rdf:about="">
        <dc:format>image/svg+xml</dc:format>
        <dc:type
           rdf:resource="http://purl.org/dc/dcmitype/StillImage" />
        <dc:title></dc:title>
      </cc:Work>
    </rdf:RDF>
  </metadata>
  <g
     inkscape:label="Layer 1"
     inkscape:groupmode="layer"
     id="layer1"
     transform="translate(25.038547,-406.49688)">
    <path
       style="opacity:1;fill:#aa4400;fill-opacity:1;fill-rule:nonzero;stroke:none;stroke-width:0.76190478;stroke-linecap:round;stroke-miterlimit:4;stroke-dasharray:none;stroke-dashoffset:0;stroke-opacity:1"
       d="m 151.81329,467.59573 c -1.87821,13.70021 1.71704,29.61458 4.17784,40.10892 0,0 8.1156,-15.48404 2.10504,-25.75603 -1.41804,-11.00484 0.86321,-22.36322 -4.82522,-32.5591 z"
       id="path5350-0"
       inkscape:connector-curvature="0"
       sodipodi:nodetypes="ccccc" />
    <g
       transform="matrix(2.99475,0,0,2.99475,238.9904,-1185.7248)"
       id="g6170">
      <path
         style="fill:#007300;fill-opacity:1;fill-rule:evenodd;stroke:none;stroke-width:1px;stroke-linecap:butt;stroke-linejoin:miter;stroke-opacity:1"
         d="m -48.1458,599.5198 c -1.542146,0.0503 -3.724954,-0.27418 -4.24066,0.84813 -1.614622,0.72098 -2.803547,1.23223 -4.74954,1.35702 -1.431993,0.1821 -2.598643,-0.62588 -3.56215,-1.01776 -1.486716,-1.43049 -3.70349,-0.91843 -4.91916,-2.5444 -1.349968,-0.49436 -2.772238,-1.30855 -4.24066,-1.69626 -1.039199,-0.75219 -1.989839,-0.3682 -3.2229,-1.69626 -1.134559,-1.76727 -3.480058,-2.77226 -4.57991,-4.07103 0.100686,-0.78129 -0.350657,-1.8807 0.584172,-2.35659 0.597246,-0.46247 0.847341,-2.0188 1.620968,-2.39295 0.346788,-0.56186 1.363117,-1.26577 2.205159,-2.0355 -1.461458,-0.61468 -2.418944,-0.70872 -3.901419,-1.69628 -1.52125,-0.86304 -3.399399,-1.83858 -4.91916,-2.54439 -2.363047,-2.17505 -7.104898,-3.52247 -5.7673,-7.09035 0.07433,-1.43058 0.774086,-2.58194 1.69627,-3.25686 0.983122,-0.76562 2.681617,-0.93139 4.34242,-0.84813 l 5.32627,0 c 1.234065,-0.65075 2.651432,-1.4845 3.56216,-3.05327 0.956227,-0.98119 -2.278727,-0.66481 -2.20515,-2.20514 -0.618436,-1.11206 -1.564292,-2.70333 -2.736289,-4.26293 -1.020688,-1.01625 -0.256061,-3.03159 -0.486601,-4.52368 -0.280373,-1.69359 1.594787,-1.69718 2.54439,-2.2391 1.282439,-0.35667 3.154428,-0.25314 4.07103,0.16962 1.133623,0.78943 2.249176,1.06216 3.246675,1.89844 0.443072,0.26366 1.704125,1.40427 2.520615,1.66372 1.848897,-0.21322 2.86324,0.67847 4.398526,0.88594 2.124715,0.37805 4.566075,0.46815 6.457564,0.97995 0.512255,-0.14727 2.37082,1.34332 2.03551,0.0679 0.131137,-1.86447 -0.173155,-3.80502 -0.84813,-5.15665 -1.198842,-2.22344 -3.843305,-3.76824 -2.71402,-7.12431 -0.727757,-1.63961 -0.147007,-3.11241 0.16963,-3.9014 0.281425,-1.81318 2.626221,-1.43695 3.9014,-0.50888 1.332851,0.88744 2.96843,1.56492 3.90141,2.20514 1.323661,0.88949 1.673114,1.65086 2.20514,-0.16963 0.3029,-1.11455 1.171321,-4.75657 1.52664,-6.418 0.756572,-1.83601 3.84953,2.5361 4.91916,2.85585 1.278153,1.17124 2.356361,0.065 2.54439,-1.35701 0.947279,-0.68622 0.314974,-6.34336 1.431045,-6.24838 1.466817,0.68606 3.785838,3.59587 5.184385,4.21287 0.413593,0.65772 1.788889,0.86664 1.86589,1.69626 0.08844,1.7443 0.823114,2.94018 1.52663,3.9014 0.892697,0.91414 1.145913,1.44135 1.86589,2.37477 0.500658,0.81436 1.198117,1.47281 2.03552,2.5444 0.152705,0.45417 0.217521,2.44591 0.16962,3.66385 0.336026,1.26979 -0.672718,3.88436 0.50888,4.30858 1.714278,-0.15936 4.187557,0.41235 5.25842,-0.50888 0.583808,-0.37364 -0.338539,-1.62631 0.511996,-2.35008 0.494697,-0.71992 3.694099,-1.55924 4.916044,-2.0602 0.976933,-1.1004 2.6613047,-1.25569 3.2229,-2.03552 1.355185,-0.70761 3.1014822,-0.99341 4.9869582,-0.84813 2.5219828,0.0617 4.17370662,0.24141 6.2083718,1.18739 1.5222812,0.0165 1.9010604,1.0347 2.5444,1.69626 0.6074603,0.93323 1.1120582,1.86718 1.52664,2.71402 0.7662243,0.74543 0.6854594,2.10579 1.52663,2.37477 1.1577123,0.26572 4.102206,0.21193 5.7673,1.01776 2.141293,0.22673 2.825124,1.8048 3.05327,3.56215 0.345216,1.54291 -2.899621,3.04949 -1.86589,4.24066 1.215281,0.5919 1.349484,2.18912 2.030902,3.04093 -0.647173,2.88418 1.967481,3.02414 4.482696,2.55673 2.229744,0.28478 4.146319,0.52153 5.699492,1.52664 0.125395,1.95133 -0.22779,4.0984 0.16963,5.93692 -0.104532,0.85375 -1.170368,1.52309 -1.86589,2.20514 -0.499368,0.71923 -1.101277,1.17161 -1.86589,1.86589 -1.318727,0.66646 -4.131572,-0.13269 -5.08879,1.01776 -0.932979,0.52035 -2.139824,2.14061 -1.01776,2.37477 1.456933,0.63605 3.17699,0.99677 4.74954,1.52663 1.681849,-0.14795 3.880494,2.2905 1.86589,2.71402 -0.938611,0.51179 -1.106179,1.62986 -1.714462,2.12985 -0.921126,0.7312 -1.257056,1.062 -2.186948,2.11081 -1.261774,0.56179 -1.569115,2.26864 -2.71402,2.5444 -1.171474,0.41166 -3.123303,0.043 -4.579775,0.16962 -1.543822,-0.18591 -4.5525164,0.55761 -4.240785,1.01776 1.2045312,0.27931 1.871683,1.01843 2.374762,1.69626 1.386503,0.73007 1.859719,3.08383 1.526638,5.25842 -0.751984,1.09066 -1.505588,2.29328 -3.5620877,1.86589 -1.5132172,0.07 -2.8438016,0.32259 -4.4103423,0.33925 -1.9013455,0.58456 -3.47998859,-0.42034 -4.74954,-1.01776 -1.7603407,0.23584 -3.4289809,-0.77158 -5.08879,-0.16962 -1.3419124,0.44171 -3.5079489,-0.0672 -5.08879,0.33925 -2.221418,0.74961 -4.237742,-0.32418 -6.10654,-0.84813 -1.01836,-0.4003 -1.296249,-1.25028 -2.68869,-1.7422 -4.019357,-1.51846 -7.165803,-2.31289 -11.3903,-2.66809 -3.78422,-0.45772 -7.617534,-0.73194 -11.36496,-1.01775 -0.137006,0.80917 -3.919653,0.58776 -4.610722,1.0471 l -0.530902,-0.0204 -0.964916,-0.009 0,0 z"
         id="path5448"
         inkscape:connector-curvature="0"
         sodipodi:nodetypes="cccccccccccccccccccccccccccccccccccccccccccccccccccccccccccccccccccccccccccccccccccccccc" />
      <path
         sodipodi:nodetypes="ccccccccccccccccccccccc"
         inkscape:connector-curvature="0"
         id="path5444"
         d="m -31.56336,568.54901 c -0.19272,7.67059 -2.7331,-0.31777 -5.10881,-0.18703 -3.72921,3.95344 -0.471862,-2.75253 -0.217614,2.72681 l 1.656504,10.38991 c 1.11412,5.73114 3.09243,12.54294 2.47265,17.91016 -5.82373,-2.86401 -6.86965,-11.16458 -12.32031,-14.77149 -4.93383,-0.098 -1.68343,5.65287 -0.07422,7.79883 0.98073,1.38213 4.03655,6.09708 0.84375,2.82031 -2.33503,-2.89928 -5.74852,0.546 -3.2832,3.08008 2.92036,5.79005 8.72478,10.77209 9.66467,17.05604 -0.65027,9.25745 -0.587916,16.20486 -2.098926,25.33872 0,0 3.996532,2.75392 10.881516,-0.25804 5.841348,1.52168 7.813606,-0.81865 11.149956,-0.049 -1.28838,-13.16215 -4.897526,-24.86841 -1.573786,-37.85917 1.65453,-5.74239 8.6868,-8.41509 9.8711,-14.11719 -3.85862,-3.76409 -7.27558,3.49287 -11.42969,4.0957 -4.77545,2.44646 -6.273345,-2.53465 -5.006635,-4.93876 1.42585,-4.63711 5.553265,-11.25086 6.446085,-16.0378 -4.50925,-4.01379 -5.8679,5.80317 -7.56445,6.20898 -0.27929,-4.74996 0.09891,-9.5909 -1.92969,-14.03906 z m 3.89648,49.52735 c 2.45003,2.24902 -1.67067,-1.35725 0,0 z"
         style="opacity:1;fill:#a05a2c;fill-opacity:1;fill-rule:nonzero;stroke:none;stroke-width:1;stroke-linecap:round;stroke-miterlimit:4;stroke-dasharray:none;stroke-dashoffset:0;stroke-opacity:1" />
      <path
         sodipodi:nodetypes="ssssscssssssssscccssssssssssssssssccscccssssssscssssssscccscsssssssccssssssccccscsssscssssssssscsssssscsssssssssssscssssscsssssscsssssssssssscsssccscsssscssccssssscssscccsssssccsssscsssscccsssssssssssscssssssssssssscsccscssssssccccssscccscssssssssssscssccccccsssscsssssscsccscsscccssssscsssssssssscscssssscsscssscssssssssssscscssssssssssssssssssssssssssscsscssscssssssssssssscsssscscscsccsscccccssccsssscsssss"
         inkscape:connector-curvature="0"
         id="path4458-0"
         d="m -40.158999,629.47143 c 0.38813,-6.03692 0.95052,-12.56861 0.57403,-14.57547 -0.77143,-4.11207 -3.75443,-9.90744 -6.79664,-13.20452 -1.88641,-2.04443 -2.24308,-2.09956 -4.85284,-0.75 -3.98891,2.06275 -6.82579,1.80996 -11.4161,-1.01729 -2.2,-1.35502 -4.9,-2.48772 -6,-2.51712 -2.4117,-0.0644 -5.66236,-2.57821 -7.88342,-6.09634 -1.54049,-2.44009 -1.51915,-2.69082 0.37498,-4.40498 1.10464,-0.9997 2.00844,-2.10899 2.00844,-2.46509 0,-0.35611 -2.23872,-1.4525 -4.97494,-2.43643 -3.47688,-1.25028 -5.58472,-2.77562 -6.99999,-5.06558 -3.19854,-5.17534 -2.70653,-7.27996 1.99801,-8.54676 2.21268,-0.59582 4.45339,-0.81735 4.97933,-0.4923 0.52594,0.32505 1.88395,0.0945 3.0178,-0.51231 2.05317,-1.09882 2.05157,-1.11515 -0.39461,-4.02229 -1.35089,-1.60544 -2.74344,-4.22692 -3.09455,-5.82552 -3.00199,-7.28732 8.15954,-6.83296 11.38588,-2.74142 0.639,0.76995 2.69578,1.35642 4.57061,1.30328 1.87484,-0.0532 4.55644,0.51757 5.95912,1.26826 1.40268,0.7507 2.84034,1.07489 3.1948,0.72043 0.35445,-0.35446 -0.31987,-3.49936 -1.4985,-6.98867 -2.80226,-8.29606 -2.82475,-11.70321 -0.0772,-11.70321 2.52406,0 6.042,1.7946 7.56342,3.85833 0.92364,1.25287 1.25799,0.76907 1.83701,-2.65811 0.87777,-5.19546 1.63283,-5.69679 4.81272,-3.19549 2.20523,1.73464 2.58808,1.78433 3.11753,0.40459 0.33197,-0.86509 0.60358,-2.45021 0.60358,-3.52249 0,-1.07228 0.704659,-2.22 1.565909,-2.5505 1.94678,-0.74705 8.43409,5.29856 8.43409,7.85984 0,0.99211 0.59165,1.80383 1.31479,1.80383 1.73846,0 4.68521,6.29732 4.68521,10.01249 0,2.77803 0.14145,2.88018 2.5,1.80556 1.375,-0.6265 2.5,-1.54215 2.5,-2.0348 0,-0.49264 2.0889,-1.81973 4.64201,-2.94909 l 4.6419998,-2.05338 0.9215,-1.13289 c 14.64516,4.98963 14.33828,5.54913 14.60161,7.67731 0.28017,2.26417 0.58738,2.41028 3.5000002,1.66447 4.30854,-1.23575 6.49785,3.84963 5.60366,2.24965 l 0.29461,5.97806 0.29461,5.97807 5.18344,0.16905 c 2.85089,0.093 5.51115,0.49676 5.9117,0.8973 0.83425,0.83425 -1.33617,8.00178 -3.19129,10.5388 -0.7277,0.9952 -2.58824,1.6994 -4.48991,1.6994 -4.33968,0 -4.85214,2.0972 -0.70746,2.89526 5.5621,1.07098 6.21938,1.88053 4.39353,5.41133 -2.1674,4.19131 -5.33176,6.19341 -9.78879,6.19341 l -3.74377,0 2.12123,3.59522 c 2.40925,4.08337 2.08356,4.55819 -4.5211402,6.59113 -3.26133,1.00384 -4.32156,0.91624 -7.1144,-0.5878 -2.72447,-1.46722 -3.94195,-1.58418 -7.16754,-0.68857 -5.4364598,1.50947 -8.4351398,1.35516 -10.5314298,-0.54196 -1.68833,-1.52791 -1.8687,-1.45999 -2.82874,1.0651 -1.31362,3.45508 -1.19153,13.619 0.3011,25.06688 l 1.17347,9 c 3.03617,1.67081 -6.87778,2.56178 -23.352509,1.90383 z m -43.23377,-52.04927 c 2.94723,2.3183 7.49382,2.58254 9.19368,0.53433 0.99186,-1.19512 0.54269,-1.62244 -2.62755,-2.49973 -2.10316,-0.58201 -4.49893,-1.54471 -5.32393,-2.13934 -1.55993,-1.12434 -0.47656,-1.01549 6.26129,0.62912 2.18809,0.53408 2.64375,0.36763 2.19499,-0.8018 -0.6029,-1.57114 -4.63165,-3.7467 -6.93823,-3.7467 -0.76332,0 -2.50648,0.4253 -3.87368,0.94511 -3.06782,1.16638 -2.59689,4.16048 1.11343,7.07901 z m 7.98837,-15.28879 c 0.85512,1.30508 2.49444,2.26467 3.86886,2.26467 2.72272,0 3.07222,-1.18476 0.88499,-3 -0.825,-0.68469 -1.5,-1.89932 -1.5,-2.69917 0,-0.84951 1.09139,-0.15724 2.62443,1.66468 2.95051,3.50647 3.88638,3.47771 2.49958,-0.0768 -1.58262,-4.05645 -4.97144,-6.88869 -8.24242,-6.88869 -2.90723,0 -3.00935,0.1418 -2.32989,3.23533 0.39083,1.77944 1.37834,4.25444 2.19445,5.5 z m 2.83631,31.15087 c 3.55917,2.79964 5.98278,3.41685 8.37977,2.13402 3.16032,-1.69136 2.47155,-2.60461 -3.21223,-4.25915 l -5.25,-1.52827 3.90499,-0.1164 c 3.83972,-0.11445 3.87473,-0.14983 2.09501,-2.1164 -2.02713,-2.23995 -3.71868,-2.48852 -6.56574,-0.96482 -2.69589,1.4428 -2.41194,4.44392 0.6482,6.85102 z m 1.0539,-21.52256 c 1.62098,1.62097 3.73929,2.63636 5.5,2.63636 3.61898,0 3.66691,-1.47798 0.11364,-3.5046 -2.65875,-1.51642 -2.66705,-1.5466 -0.25,-0.90954 1.375,0.3624 3.07337,1.11797 3.77417,1.67903 0.70079,0.56106 1.60048,0.6938 1.99931,0.29497 0.91201,-0.91202 -5.30777,-6.55986 -7.22416,-6.55986 -2.25067,0 -6.54932,1.8633 -6.54932,2.83889 0,0.48861 1.18636,2.07475 2.63636,3.52475 z m 3.25407,12.32344 c 2.82888,0.71032 7.27366,-0.66763 7.86119,-2.43708 0.27873,-0.83947 -0.84392,-1.29921 -3.41829,-1.39983 -3.38401,-0.13227 -3.48169,-0.1999 -0.83333,-0.57695 4.28741,-0.61041 5.29555,-2.03544 2.02133,-2.85722 -1.93878,-0.48661 -4.14707,-0.0247 -7.37176,1.54199 -4.39061,2.13312 -4.51225,2.30366 -2.62669,3.68278 1.08742,0.79535 3.05281,1.71619 4.36755,2.04631 z m 5.56415,-20.14163 c 1.35,1.35 3.39321,2.45455 4.54046,2.45455 2.00397,0 1.9861,-0.10765 -0.45454,-2.73978 -4.09474,-4.416 -2.9141,-5.03095 1.45953,-0.76022 3.5273,3.44432 4,3.65401 4,1.77438 0,-1.17234 -0.69018,-2.82171 -1.53374,-3.66526 -1.31997,-1.31997 -7.43138,-3.58655 -9.71626,-3.60354 -1.69373,-0.0126 -0.58181,4.25352 1.70455,6.53987 z m 4.17132,27.50242 c 3.06652,1.16589 3.3741,1.17545 3.3741,0.10494 0,-0.46595 -1.0125,-1.37312 -2.25,-2.01594 -1.98678,-1.03202 -1.8113,-1.10309 1.5,-0.6075 2.08968,0.31276 3.75,0.14175 3.75,-0.38623 0,-1.04007 -4.75977,-2.85258 -6.75,-2.57038 -0.6875,0.0975 -1.94083,0.23349 -2.78518,0.30224 -2.30105,0.18736 0.0145,3.97653 3.16108,5.17287 z m 0.22663,8.02609 c 2.90358,0.86994 4.3815,0.87116 6,0.005 3.19699,-1.71097 2.59678,-3.09595 -1.10253,-2.54411 l -3.25,0.48482 2.75623,-1.09523 c 2.78129,-1.10522 2.87624,-2.92444 0.15263,-2.92444 -2.3716,0 -8.40886,2.8064 -8.40886,3.90883 0,0.55599 1.73364,1.5303 3.85253,2.16513 z m 2.73825,-23.32396 c 2.15206,3.32718 4.798,2.99577 3.99194,-0.5 l -0.6341,-2.75 1.8826,2.38603 c 1.22221,1.54904 2.12441,1.99478 2.57193,1.27067 1.63164,-2.64005 -3.93734,-8.1567 -8.23406,-8.1567 -2.10005,0 -2.3049,0.32948 -1.70978,2.75 0.37188,1.5125 1.33103,3.7625 2.13147,5 z m 1.1107,8.3266 c 3.54942,1.34949 4.29852,1.15625 4.29852,-1.10882 0,-2.21241 -3.32744,-3.95642 -6.14351,-3.22 -2.31361,0.60502 -1.22377,3.16208 1.84499,4.32882 z m -0.55178,-36.76086 c 1.33353,2.53349 2.77741,3.64739 4.75584,3.66895 0.80306,0.009 0.17853,-1.03902 -1.45698,-2.44438 -1.57438,-1.35283 -2.60088,-2.72132 -2.28111,-3.0411 0.31978,-0.31977 1.98792,0.60209 3.70698,2.04859 1.71906,1.44649 3.12557,2.17203 3.12557,1.6123 0,-1.42584 -6.49327,-8.1601 -7.86808,-8.1601 -1.46422,0 -1.45432,3.51898 0.0178,6.31574 z m 3.83531,13.14479 c 1.10692,2.91141 3.2053,4.06416 5.67379,3.11691 1.425,-0.54682 1.25769,-1.05519 -1.18709,-3.60699 -3.47857,-3.63084 -2.13119,-3.97647 1.59287,-0.4086 2.17883,2.08745 2.78151,2.28168 3.25458,1.04887 0.81016,-2.11124 -2.12592,-5.28622 -6.56914,-7.10367 l -3.75,-1.53389 0,2.94832 c 0,1.62158 0.44325,4.11415 0.98499,5.53905 z m 3.16677,8.9732 c 1.16308,2.55268 4.42927,4.32089 5.6736,3.0715 0.37105,-0.37257 -0.33786,-1.49829 -1.57536,-2.5016 -3.02704,-2.45421 -2.86971,-3.6397 0.21482,-1.61864 2.99334,1.96132 3.53518,2.00484 3.53518,0.28399 0,-1.57192 -3.56846,-3.41814 -6.75,-3.49226 -2.54954,-0.0594 -2.73586,0.66282 -1.09824,4.25701 z m 8.22326,37.17031 3.875019,5.82567 -0.59553,9.03514 c -0.32754,4.96933 -0.8958,11.20351 -1.262799,13.85373 l -0.66727,4.81858 3.887779,-0.31858 3.88778,-0.31858 0.68575,-5.5 c 0.37716,-3.025 1.09489,-7.31487 1.59496,-9.53305 0.66464,-2.94823 0.56997,-4.34994 -0.35195,-5.21115 -1.00179,-0.9358 -1.51469,0.30497 -2.4939,6.03305 -0.678,3.96613 -1.43252,6.6357 -1.67672,5.93237 -1.06126,-3.05662 4.91145,-30.224 6.64377,-30.21975 1.08691,0.003 1.15781,7.84359 0.077,8.51159 -0.69821,0.43152 -0.85352,-0.31097 -0.45583,-2.17927 0.43273,-2.03294 0.32961,-2.40988 -0.3649,-1.33379 -0.53245,0.825 -1.22501,3.75 -1.53902,6.5 -0.39976,3.50093 -0.30823,4.25046 0.30529,2.5 l 0.87623,-2.5 0.21568,2.5 c 0.15303,1.77379 0.34853,1.99165 0.67301,0.75 0.25152,-0.9625 0.7803,-1.75 1.17505,-1.75 0.69558,0 -0.13381,13.11106 -1.37588,21.75 l -0.61105,4.25 3.36397,0 3.36397,0 -0.81149,-5.75 c -0.44631,-3.1625 -1.09065,-10.59538 -1.43186,-16.51751 -0.75268,-13.06374 0.67661,-17.82377 7.35821,-24.50537 5.24467,-5.24467 5.20612,-6.43938 -0.0675,-2.0924 -2.24118,1.84737 -5.00021,3.13661 -6.89597,3.22235 -2.61986,0.1185 -3.33392,-0.33954 -4.17686,-2.67927 -0.82675,-2.29477 -0.48955,-4.25708 1.80425,-10.5 4.01078,-10.91589 4.20654,-12.75767 0.52376,-4.9278 -1.74617,3.7125 -3.56479,6.75 -4.04138,6.75 -0.47659,0 -0.94977,-4.3875 -1.05151,-9.75 -0.10605,-5.58935 -0.34041,-7.54725 -0.54921,-4.58811 -0.42264,5.98987 -2.40634,7.57946 -4.83433,3.87388 l -1.5725,-2.39993 -2.572699,2.18208 c -4.57732,3.88232 -6.28628,6.022 -6.28628,7.87064 0,2.66084 1.70641,2.20736 3.53172,-0.93856 1.54163,-2.657 1.5468,-2.31757 0.0381,2.5 -0.88616,2.82971 0.73728,2.94288 3.44035,0.23981 1.639639,-1.63964 1.888069,-2.77387 1.347699,-6.15314 -0.970009,-6.06612 1.0366,-4.09243 2.93435,2.8862 2.03019,7.46566 3.91131,20.13877 3.16783,21.34173 -1.07447,1.73854 -4.30399,0.94998 -6.13749,-1.49861 -1.002419,-1.3387 -3.378439,-4.99612 -5.280049,-8.1276 -1.9016,-3.13148 -3.6389,-5.14929 -3.86065,-4.48403 -0.22176,0.66527 0.9966,3.15875 2.70746,5.54108 4.81341,6.70256 3.66509,10.14629 -1.75215,5.25456 l -2.49172,-2.25 1.92727,3.13919 c 1.05999,1.72656 3.67102,5.76074 5.80228,8.96485 z m -4.00693,-53.81747 c 1.18704,1.92067 3.84325,1.48534 3.27395,-0.53657 -1.52538,-5.41762 -1.81448,-8.71353 -0.66848,-7.62108 0.65135,0.6209 1.43301,2.9834 1.73702,5.25 0.58327,4.34855 1.13771,4.87279 3.089419,2.92108 2.30699,-2.30699 1.3366,-6.64304 -2.416359,-10.79712 -1.989,-2.20158 -3.9765,-4.00288 -4.41667,-4.00288 -2.39151,0 -2.84331,11.155 -0.59888,14.78657 z m 4.2389,10.63164 c 0.9635,2.51086 2.257999,1.85131 3.274229,-1.66821 l 0.9384,-3.25 0.0902,4.37244 c 0.0777,3.76845 0.2974,4.20048 1.59019,3.12756 1.51479,-1.25716 2.01209,-6.50195 0.89301,-9.41821 -0.82228,-2.14283 -2.57935,-1.98849 -5.204449,0.45717 -2.25398,2.0999 -2.6346,3.63511 -1.58157,6.37925 z m 3.917179,-20.39815 c 2.21632,1.83938 2.87004,0.54954 1.58694,-3.13117 -0.61607,-1.76726 -0.90995,-3.42339 -0.65306,-3.68027 0.44693,-0.44693 1.682,2.11474 2.99338,6.2086 0.47906,1.49553 0.87916,1.65219 1.81907,0.71228 0.93992,-0.93992 0.76775,-2.01884 -0.78278,-4.90542 -2.36907,-4.41042 -5.13409,-5.3837 -5.77433,-2.03253 -0.84265,4.41063 -0.70492,5.57059 0.81078,6.82851 z m 5.44866,12.66026 c 2.05677,1.01998 2.77186,0.9557 4.25,-0.38199 2.05507,-1.85982 2.21268,-3.75051 0.67932,-8.14911 -1.25424,-3.59794 -1.98347,-3.79728 -5.48885,-1.50047 -3.44684,2.25846 -3.11492,8.20938 0.55953,10.03157 z m 2.0462,-6.68032 c 0.60496,0 0.75097,1.11746 0.35933,2.75 -0.94185,3.92599 -1.37838,4.05794 -1.37838,0.41667 0,-1.74167 0.45857,-3.16667 1.01905,-3.16667 z m -0.36311,90.26903 c 0.27392,-0.67703 0.29059,-2.02703 0.0371,-3 -0.25354,-0.97297 -0.47766,-0.41903 -0.49804,1.23097 -0.0204,1.65 0.18706,2.44606 0.46099,1.76903 z m 0.70647,-6.35236 c 0.19933,-0.22917 0.61846,-2.41828 0.93141,-4.8647 0.3681,-2.87759 0.24555,-3.93678 -0.3471,-3 -0.84548,1.33642 -1.40019,8.80272 -0.58431,7.8647 z m 1.52258,-68.91667 c 0.48674,0 1.6477,-1.16404 2.5799,-2.58676 2.53451,-3.86815 3.10246,-2.06729 0.61655,1.95498 -2.43651,3.94237 -1.38213,5.5056 1.9135,2.83696 1.50038,-1.21494 2.37266,-3.28686 2.73422,-6.49464 0.60187,-5.33981 -0.46963,-5.93035 -5.77882,-3.18486 -2.26386,1.17069 -2.95034,2.21774 -2.95034,4.5 0,1.63588 0.39825,2.97432 0.88499,2.97432 z m 5.33168,18.18333 c 0.71756,-0.71756 0.7766,-1.18333 0.15,-1.18333 -1.33478,0 -2.51739,1.18261 -1.85,1.85 0.28416,0.28417 1.04916,-0.0158 1.7,-0.66667 z m 0.61557,-4.09355 c 2.26551,-1.21246 4.73684,-4.08978 3.51271,-4.08978 -0.49497,0 -1.90007,0.70052 -3.12244,1.5567 -2.73311,1.91435 -3.04754,3.95521 -0.39027,2.53308 z m 1.12866,8.88126 c 1.23805,1.95764 2.28564,0.76078 3.75549,-4.29059 l 1.21643,-4.18045 -0.55433,4.25 c -0.64056,4.91114 1.06077,5.84931 2.7202,1.5 0.76055,-1.99337 0.71044,-3.77952 -0.18211,-6.49184 -1.45102,-4.40936 -2.65586,-3.88288 -5.84131,2.55244 -2.37164,4.79125 -2.35592,4.69726 -1.11437,6.66044 z m 1.57428,-18.97104 c 0.29435,0 1.6584,-0.73596 3.03121,-1.63546 3.92606,-2.57245 3.84491,-0.97661 -0.0928,1.82512 -3.01623,2.14607 -3.31779,2.69475 -2.05643,3.74159 1.94163,1.61141 3.81581,0.48146 7.0088998,-4.22566 3.58912,-5.29095 3.42933,-7.12667 -0.5510598,-6.33059 -1.71875,0.34375 -3.75825,0.625 -4.53222,0.625 -0.77398,0 -1.8142,1.0125 -2.31162,2.25 -1.07892,2.68422 -1.21988,3.75 -0.49598,3.75 z m 1.34864,-10.60619 c 0.63845,1.6268 1.11651,1.27432 3.39069,-2.5 1.4561,-2.4166 2.655,-3.71881 2.66423,-2.89381 0.009,0.825 -0.8632,2.625 -1.93874,4 -1.07554,1.375 -1.96553,2.8375 -1.97776,3.25 -0.0404,1.36323 3.80611,0.7788 5.4063298,-0.82143 1.7755,-1.7755 2.20844,-10.42857 0.52177,-10.42857 -1.9112598,0 -6.8341598,2.97115 -7.8702298,4.74998 -1.17929,2.02472 -1.18366,2.128 -0.19629,4.64383 z m 1.98988,45.55388 c 2.96365,1.22758 9.6912998,0.56517 10.6911798,-1.05267 0.81428,-1.31753 -4.18456,-5.89502 -6.4376398,-5.89502 -2.65329,0 -5.12724,1.01664 -5.12724,2.10699 0,0.49115 1.2375,0.8999 2.75,0.90832 1.5125,0.008 3.4249998,0.49345 4.2499998,1.07783 1.09862,0.7782 0.0952,0.89868 -3.7499998,0.45025 -5.7548,-0.67115 -6.93013,0.51804 -2.3763,2.4043 z m 7.3762998,-29.62461 c 2.98302,-2.68544 5.28517,-3.99802 4.34549,-2.47759 -0.39244,0.63498 -0.27377,1.15451 0.26371,1.15451 2.32510997,0 4.31637,-1.43883 5.70347,-4.12118 1.44541,-2.79512 1.41715,-2.87882 -0.97189,-2.87882 -5.62985,0 -11.48566,4.26832 -11.55751,8.42431 -0.0323,1.86809 0.0325,1.86514 2.21673,-0.10123 z m 0.83091,6.63915 3.08092,-3.46223 -2.08092,3.61803 c -2.67703,4.6545 -2.6392,4.88197 0.8121,4.88197 3.21371,0 3.63559997,-0.67371 4.64749997,-7.42156 l 0.70140003,-4.67726 -2.87096,0.65434 c -3.34144,0.76158 -7.35881,5.07385 -7.36598,7.90671 -0.004,1.6233 0.52717,1.36422 3.07594,-1.5 z m 4.41909,11.30284 c 3.96503,0.39524 3.95848,0.40019 -0.75,0.56683 -3.40595,0.12053 -4.75,0.57848 -4.75,1.61841 0,2.50267 2.94733,3.35424 7.23129997,2.08933 5.31894003,-1.57049 6.37958003,-3.61712 3.34966003,-6.46359 -2.14418,-2.01435 -2.73797003,-2.11086 -6.59584,-1.07204 -4.90711,1.32134 -4.27411,2.68401 1.51488,3.26106 z m -1.11774,-39.66937 c 1.16476,-0.31262 2.68023997,-0.57454 3.36773997,-0.58205 2.11644003,-0.0231 1.38555003,-1.63086 -1.29705,-2.85313 -4.04829997,-1.84453 -5.23734997,-1.48352 -4.68201997,1.42152 0.39338,2.05783 0.92354,2.46665 2.61133,2.01366 z m -2.4122,10.4043 c 0.53354,0 1.96816,-1.35 3.18806,-3 1.21989997,-1.65 2.59919997,-3 3.06512,-3 1.04102,0 -0.64513003,3.27904 -2.78812,5.42202 -1.4373,1.43731 -1.34874,1.57798 0.99344997,1.57798 3.65287003,0 6.57143003,-3.30475 6.57143003,-7.44098 0,-1.89254 -0.35742,-3.66188 -0.79426,-3.93186 -1.27964,-0.79087 -8.90183,3.01391 -10.07252,5.02792 -1.34954,2.32169 -1.44182,5.34492 -0.16316,5.34492 z m 10.9069,41.80265 c 3.98948,0.23465 5.2836402,-0.0576 5.7607402,-1.30088 0.90032,-2.3462 -3.4158302,-6.50177 -6.7530002,-6.50177 -3.01537,0 -5.14675003,1.97759 -2.19372,2.03544 0.99496,0.0195 2.93402,0.72269 4.30902,1.56267 l 2.5,1.52723 -2.5,-0.60159 c -1.375,-0.33087 -4.06783,-0.88505 -5.98407003,-1.2315 l -3.48406997,-0.6299 1.59984,2.41882 c 1.28902997,1.9489 2.5995,2.47763 6.74526,2.72148 z m 0.87304,-22.16067 4.7500002,-0.5851 -4.3000002,1.57156 c -4.39168,1.60507 -4.8985,2.89785 -1.88185,4.80012 2.25337,1.42096 6.4900102,-0.9307 9.1818502,-5.09662 1.70522,-2.63902 2.46453,-3.02204 5.15167,-2.5987 2.52861,0.39837 3.45152,0.029 4.6684,-1.86835 0.8342,-1.30069 1.66595,-3.48989 1.84833,-4.86489 0.26302,-1.98295 -0.15478,-2.56885 -2.02011,-2.83288 -3.91645,-0.55436 -7.15386,0.75099 -8.34474,3.36469 -1.52053,3.3372 -0.60328,3.93311 3.10352,2.01625 4.24109,-2.19316 3.90692,-1.22588 -0.46831,1.35557 -2.68174,1.58227 -4.02381,1.85363 -5.43426,1.09878 -2.80513,-1.50126 -7.6553702,-1.20868 -9.4330702,0.56902 -2.78995003,2.78995 -1.85733,3.69087 3.17857,3.07055 z m -1.16821,-7.24897 c 0.86998,0.33385 2.91794,0.60699 4.55102,0.60699 2.4429602,0 3.2260602,-0.61466 4.4182202,-3.46788 2.18693,-5.23406 1.89165,-6.53212 -1.48593,-6.53212 -4.2038602,0 -7.8216502,1.59732 -8.3648402,3.69321 -0.91859,3.54442 -0.67779,5.10144 0.88153,5.6998 z m 3.61063,-3.43404 3.3075802,-2.25921 -2.7197002,2.84709 c -1.49583,1.5659 -2.98424,2.58254 -3.30757,2.25921 -0.32334,-0.32333 0.90053,-1.60452 2.71969,-2.84709 z m -1.69242,-8.59734 c 0.825,-0.31659 1.5,-0.13986 1.5,0.39271 0,1.1892 5.2576302,0.31908 6.1274302,-1.01407 0.90206,-1.38258 -0.0983,-4.51511 -1.62952,-5.1027 -0.71775,-0.27543 -2.22649,-0.2598 -3.3527602,0.0347 -1.70314,0.44538 -2.43837,1.53865 -4.0662,6.04633 -0.0434,0.12023 0.59605,-0.0404 1.42105,-0.35699 z m 3.5594302,-3.7866 c 1.06731,-1.05873 1.94057,-1.46597 1.94057,-0.90498 0,0.56098 -0.9,1.83446 -2,2.82995 -2.5640802,2.32046 -2.5117502,0.62555 0.0594,-1.92497 z m 0.52236,34.81798 c 3.3902,1.30095 6.15894,0.46971 9.32875,-2.80072 3.20271,-3.30435 3.24098,-3.44083 1.26191,-4.5 -3.06956,-1.64278 -6.67294,-1.3193 -9.31167,0.83591 l -2.36078,1.9282 4.5,-0.39451 c 2.475,-0.21699 3.6,-0.15944 2.5,0.12789 -3.89639,1.01774 -7.5000002,2.66318 -7.5000002,3.42455 0,0.42443 0.7118002,1.04484 1.5817902,1.37868 z"
         style="fill:#000000" />
    </g>
  </g>
</svg>
