<svg width="219" height="253" xmlns="http://www.w3.org/2000/svg">

 <g id="imagebot_2">
  <g transform="matrix(1 0 0 1 -1.98 -2)" id="imagebot_40">
   <path stroke-linejoin="round" stroke="#010101" stroke-width="4" stroke-linecap="round" fill="#939dac" d="M221.07,131.19C221.09,191.7 172.05,240.76 111.54,240.76C51.028,240.76 1.98,191.7 2,131.19C1.981,70.684 51.028,21.62 111.54,21.62C172.05,21.623 221.09,70.684 221.07,131.19z" id="imagebot_42"/>
   <path fill-opacity="0.3137" fill="#010101" d="M220.65,140.78C199.82,186.48 153.72,218.25 100.21,218.25C69.887,218.25 41.963,208.04 19.651,190.87C39.185,220.9 73.029,240.75 111.53,240.75C168.81,240.75 215.81,196.8 220.65,140.78z" id="imagebot_41"/>
  </g>
  <g transform="matrix(1 0 0 1 -1.98 -2)" id="imagebot_25">
   <g id="imagebot_33">
    <path stroke-linejoin="round" stroke="#010101" stroke-width="4" stroke-linecap="round" fill="#939dac" d="M26.537,230.99C26.531,251.83 43.424,254.49 64.266,254.49S102,251.83 102,230.99S84.397,198.64 64.266,193.25C32.948,184.86 26.531,210.15 26.537,230.99z" id="imagebot_39"/>
    <g id="imagebot_35">
     <path stroke-linejoin="round" stroke="#010101" stroke-width="4" stroke-linecap="round" fill="#ffffff" d="M93.634,242.74C95.144,248.38 90.647,250.35 84.861,251.9S74.194,253.99 72.687,248.36C71.176,242.73 74.643,236.9 80.428,235.35S92.126,237.11 93.634,242.74z" id="imagebot_38"/>
     <path stroke-linejoin="round" stroke="#010101" stroke-width="4" stroke-linecap="round" fill="#ffffff" d="M55.552,248.84C54.045,254.48 49.163,253.94 43.378,252.39C37.592,250.84 33.094,248.86 34.605,243.23C36.112,237.6 42.025,234.29 47.811,235.84C53.596,237.39 57.062,243.21 55.552,248.84z" id="imagebot_37"/>
     <path stroke-linejoin="round" stroke="#010101" stroke-width="4" stroke-linecap="round" fill="#ffffff" d="M74.19,247.92C74.192,253.75 69.337,254.49 63.347,254.49C57.358,254.49 52.503,253.75 52.505,247.92C52.503,242.09 57.358,237.36 63.347,237.36C69.337,237.36 74.192,242.09 74.19,247.92z" id="imagebot_36"/>
    </g>
    <path fill-opacity="0.3137" fill="#010101" d="M76.208,197.38C81.37,204.14 84.538,212.59 84.536,223.02C84.542,247.67 67.643,250.82 46.802,250.82C43.577,250.82 40.457,250.72 37.469,250.5C44.305,253.82 53.781,254.5 64.262,254.5C85.103,254.5 102,251.82 102,230.98C102,214.42 90.876,203.77 76.208,197.38z" id="imagebot_34"/>
   </g>
   <g id="imagebot_26">
    <path stroke-linejoin="round" stroke="#010101" stroke-width="4" stroke-linecap="round" fill="#939dac" d="M196.54,230.99C196.54,251.83 179.65,254.49 158.81,254.49S121.07,251.83 121.08,230.99C121.07,210.15 138.68,198.64 158.81,193.25C190.13,184.86 196.54,210.15 196.54,230.99z" id="imagebot_32"/>
    <g id="imagebot_28">
     <path stroke-linejoin="round" stroke="#010101" stroke-width="4" stroke-linecap="round" fill="#ffffff" d="M189.1,242.74C190.61,248.38 186.11,250.35 180.32,251.9C174.54,253.45 169.66,253.99 168.15,248.36S170.1,236.9 175.89,235.35S187.59,237.11 189.1,242.74z" id="imagebot_31"/>
     <path stroke-linejoin="round" stroke="#010101" stroke-width="4" stroke-linecap="round" fill="#ffffff" d="M151.01,248.84C149.51,254.48 144.62,253.94 138.84,252.39C133.05,250.84 128.56,248.86 130.07,243.23S137.49,234.29 143.27,235.84C149.06,237.39 152.52,243.21 151.01,248.84z" id="imagebot_30"/>
     <path stroke-linejoin="round" stroke="#010101" stroke-width="4" stroke-linecap="round" fill="#ffffff" d="M169.65,247.92C169.65,253.75 164.8,254.49 158.81,254.49S147.96,253.75 147.96,247.92S152.82,237.36 158.81,237.36S169.65,242.09 169.65,247.92z" id="imagebot_29"/>
    </g>
    <path fill-opacity="0.3137" fill="#010101" d="M175.83,192.16C185.53,199.65 188.09,214.83 188.09,228.23C188.1,249.79 170.62,252.55 149.06,252.55C144.39,252.55 139.92,252.4 135.77,251.98C142.14,254.02 150.12,254.48 158.8,254.48C179.64,254.48 196.54,251.83 196.53,230.98C196.54,214.66 192.6,195.61 175.83,192.16z" id="imagebot_27"/>
   </g>
  </g>
  <path transform="translate(-1 0) matrix(1 0 0 1 -1.98 -2)" fill-opacity="0.3137" fill="#010101" d="M201.57,106.19C201.58,154 162.83,192.76 115.03,192.76C67.219,192.76 28.468,154 28.483,106.19C28.468,58.385 67.219,19.623 115.03,19.623C162.83,19.623 201.58,58.385 201.57,106.19z" id="imagebot_24"/>
  <path transform="translate(-1 2) matrix(1 0 0 1 -2.98 0)" stroke-linejoin="round" stroke="#010101" stroke-width="4" stroke-linecap="round" fill="#939dac" d="M191.25,49.672C198.53,45.107 203.37,37.026 203.37,27.809C203.37,13.564 191.8,2 177.56,2C168.75,2 161,6.459 156.35,13.212C144.55,8.337 129.54,5.623 110.53,5.623C92.466,5.623 77.985,8.175 66.425,12.767C61.741,6.261 54.135,2 45.513,2C31.27,2 19.704,13.564 19.704,27.809C19.704,36.506 24.018,44.188 30.618,48.862C25.732,61.606 23.978,76.405 23.983,92.192C23.968,140 62.719,178.76 110.53,178.76C158.33,178.76 197.08,140 197.07,92.192C197.08,76.68 195.53,62.123 190.99,49.53C191.21,49.718 191.31,49.772 191.25,49.672z" id="imagebot_23"/>
  <g transform="matrix(1 0 0 1 -1.98 -2)" id="imagebot_19">
   <path stroke-linejoin="round" stroke="#010101" stroke-width="4" stroke-linecap="round" fill="#cccccc" d="M179.59,12.616C174.41,12.616 169.89,15.343 167.31,19.418C175.23,24.75 182.04,31.558 187.37,39.477C191.44,36.895 194.14,32.335 194.14,27.169C194.14,19.138 187.62,12.616 179.59,12.616z" id="imagebot_21"/>
   <path stroke-linejoin="round" stroke="#010101" stroke-width="4" stroke-linecap="round" fill="#cccccc" d="M43.486,12.616C48.662,12.616 53.182,15.343 55.761,19.418C47.845,24.75 41.03,31.558 35.702,39.477C31.639,36.895 28.932,32.335 28.932,27.169C28.934,19.138 35.455,12.616 43.486,12.616z" id="imagebot_20"/>
  </g>
  <g transform="rotate(358.108 109.939 152.712) matrix(1.60746 0 0 2.48973 -69.3523 -218.892)" id="imagebot_16">
   <path fill="#010101" d="M132.91,152.28C130.61,156.26 126.4,158.12 123.51,156.45C120.61,154.78 120.12,150.2 122.42,146.23C124.71,142.25 128.92,140.39 131.82,142.06C134.71,143.73 135.2,148.31 132.91,152.28z" id="imagebot_18"/>
   <path fill="#010101" d="M90.168,152.28C92.461,156.26 96.669,158.12 99.565,156.45C102.46,154.78 102.95,150.2 100.66,146.23C98.363,142.25 94.155,140.39 91.259,142.06C88.362,143.73 87.874,148.31 90.168,152.28z" id="imagebot_17"/>
  </g>
  <g transform="matrix(1 0 0 1 -1.98 -2)" id="imagebot_9">
   <g id="imagebot_13">
    <path stroke-linejoin="round" stroke="#010101" stroke-width="4" stroke-linecap="round" fill="#ffffff" d="M160.57,59.722C160.57,72.241 150.42,82.391 137.9,82.391S115.24,72.241 115.24,59.722S125.38,37.053 137.9,37.053C150.42,37.052 160.57,47.203 160.57,59.722z" id="imagebot_15"/>
    <path fill="#010101" d="M140.42,63.722C140.42,67.895 137.04,71.279 132.87,71.279C128.69,71.279 125.31,67.895 125.31,63.722S128.69,56.165 132.87,56.165C137.04,56.165 140.42,59.549 140.42,63.722z" id="imagebot_14"/>
   </g>
   <g id="imagebot_10">
    <path stroke-linejoin="round" stroke="#010101" stroke-width="4" stroke-linecap="round" fill="#ffffff" d="M107.83,59.722C107.84,72.241 97.689,82.391 85.171,82.391S62.505,72.241 62.508,59.722C62.505,47.203 72.653,37.053 85.171,37.053S107.84,47.203 107.83,59.722z" id="imagebot_12"/>
    <path fill="#010101" d="M98.391,63.722C98.393,67.895 95.01,71.279 90.837,71.279S83.281,67.895 83.282,63.722C83.281,59.549 86.664,56.165 90.837,56.165S98.393,59.549 98.391,63.722z" id="imagebot_11"/>
   </g>
  </g>
  <g transform="rotate(22.9654 79.2559 105.759) matrix(1.44535 0 0 1.05547 -38.6547 0.798317)" id="imagebot_3">
   <path stroke-linejoin="round" stroke="#010101" stroke-width="4" fill="#ffffff" d="M107.14,83.311C87.997,91.817 92.683,91.104 83.939,94.399C86.271,82.416 76.284,68.614 71.72,70.328C66.69,72.217 60.128,82.431 59.516,92.233C57.704,91.189 56.093,90.285 54.719,89.335C55.934,80.988 54.017,68.442 51.166,69.284C51.154,69.287 51.14,69.295 51.128,69.299C47.143,70.551 37.747,84.443 37.872,91.568S36.878,105.08 56.118,115.26C84.087,130.04 112.89,122.32 118.94,113.64C125.22,104.63 126.28,74.806 107.14,83.311z" id="imagebot_7"/>
   <path fill-opacity="0.3137" fill="#010101" d="M82.048,95.36C89.8,89.776 78.128,68.014 72.433,70.153C71.885,70.359 71.271,70.779 70.583,71.358C75.952,72.575 81.921,89.922 74,94.563C72.916,95.198 78.957,97.583 82.048,95.36z" id="imagebot_6"/>
   <path fill-opacity="0.3137" fill="#010101" d="M124.25,97.879C122.8,100.06 122.09,101.38 119.94,103.51C104.21,119.12 52.963,111.25 42.475,102.49C48.515,118.62 98.115,131.49 116.02,116.32C123.15,110.27 122.98,104.23 124.25,97.879z" id="imagebot_5"/>
   <path fill-opacity="0.3137" fill="#010101" d="M54.122,90.942C59.636,87.546 54.077,67.399 50.122,68.567C49.741,68.678 53.747,83.817 48.372,88.067C48.247,88.317 49.247,91.817 54.122,90.942z" id="imagebot_4"/>
  </g>
  <title>imagebot_2</title>
 </g>
 <metadata>image/svg+xmlOpenclipartCartoon rhino2009-03-13T21:51:06Cartoon rhino. Remixed from Lemmling's Cartoon Elephant and Cartoon Goat.https://openclipart.org/detail/22293/cartoon-rhino-by-studiofibonacciStudioFibonacciafricaanimalcartoonmammalremixrhinorhinoceros</metadata>
</svg>