<?xml version="1.0" encoding="utf-8"?>

<!DOCTYPE svg PUBLIC "-//W3C//DTD SVG 1.1//EN" "http://www.w3.org/Graphics/SVG/1.1/DTD/svg11.dtd">
<svg version="1.1" id="Layer_1" xmlns="http://www.w3.org/2000/svg" xmlns:xlink="http://www.w3.org/1999/xlink" x="0px" y="0px"
	 viewBox="0 0 1904 1994" enable-background="new 0 0 1904 1994" xml:space="preserve">
<g>
	<path d="M127.3017,1427.6016c-3.5979,10.6357-8.4749,20.7834-11.7694,31.5471c-7.4162,24.2299-12.1911,48.8647-12.7565,74.2805
		c-0.3479,15.6399-0.4012,31.285,1.6243,46.7849c1.7775,13.6019,4.2659,27.1357,7.7899,40.4299
		c6.97,26.2952,16.9181,51.4226,29.4326,75.5763c8.7807,16.9473,19.8695,32.1281,32.8581,46.105
		c23.62,25.4177,51.5221,44.939,82.3546,60.3663c24.6271,12.3225,50.4851,21.2936,77.3626,27.5847
		c34.6119,8.1017,69.6212,10.5313,104.9445,8.386c42.0414-2.5532,82.3365-12.6222,121.0128-29.4059
		c29.2501-12.693,56.4745-28.8051,81.8186-48.0052c33.3293-25.2495,62.5636-54.587,86.9889-88.6821
		c31.2352-43.601,54.6342-91.2305,73.3603-141.2777c9.3229-24.9159,17.3329-50.2615,24.3433-75.95
		c5.3869-19.7395,10.0565-39.6395,14.496-59.5862c3.2296-14.5103,5.3796-29.265,7.8596-43.9363
		c1.9872-11.7561,4.1458-23.5044,5.5119-35.339c1.96-16.9801,4.3431-33.9498,4.7946-51.0585
		c0.2671-10.1194,1.4357-20.1826,0.801-30.3805c-0.7043-11.3162-4.8051-20.9553-11.9508-29.3767
		c-14.6669-17.2853-34.0006-26.4673-55.636-31.6812c-10.6251-2.5607-21.3528-3.4498-32.187-2.8385
		c-10.0878,0.5692-19.8444,2.9177-27.9311,9.2788c-10.9543,8.6172-13.1509,20.7098-9.1796,34.675
		c7.5071,26.3992,21.6221,49.8578,33.3239,74.3912c4.7587,9.9769,8.8209,20.225,10.2031,31.3041
		c1.6362,13.1154-4.1036,24.6854-16.9163,33.5203c-15.2022,10.4828-28.8727,4.713-42.1905-2.9034
		c-9.0405-5.1703-16.8992-12.3693-25.7771-17.869c-16.9988-10.5305-35.0926-12.0277-53.1155-3.1265
		c-18.431,9.1027-23.8077,26.4749-21.6049,44.2777c1.2819,10.3595,13.3594,16.7417,24.9061,14.0852
		c6.2915-1.4476,11.9954-3.9015,15.6664-9.6737c4.3011-6.7631,2.1262-13.2142-5.3923-15.979
		c-2.326-0.8555-4.5662-1.9413-6.8718-2.8558c-4.1149-1.6322-7.6674-4.208-7.7925-8.8209
		c-0.126-4.6464,2.3217-8.5397,6.2692-11.2887c10.715-7.4619,28.2748-4.2362,37.2436,6.8578
		c10.8839,13.463,7.4203,27.8929-9.2004,37.6412c-10.5544,6.1903-21.9042,11.019-31.7089,18.494
		c-5.1644,3.9371-10.3296,7.9209-14.6198,12.8091c-2.9849,3.401-5.5339,3.3651-8.8714,0.5509
		c-11.6147-9.7935-20.4115-21.8267-27.8047-34.9197c-5.7271-10.1425-10.2295-20.712-11.1729-32.634
		c-0.9056-11.4443,4.0673-22.2347,14.2751-27.286c15.7361-7.787,32.3123-13.5859,48.7401-19.7117
		c0.1549-0.0576,0.3681-0.027,0.4793-0.1235c1.41-1.2256,4.8775-0.5055,4.4256-3.0632c-0.446-2.5249-3.3645-1.1344-5.1786-1.2986
		c-3.1455-0.2848-6.3193-0.2426-9.4782-0.3995c-1.0801-0.0537-2.5373,0.4998-3.0084-0.9978
		c-0.4243-1.3485,0.8241-2.1046,1.64-2.8438c5.9663-5.4048,13.1762-8.9294,20.0017-13.0194
		c5.2709-3.1584,10.7167-6.0243,16.0748-9.0378c9.9086-5.5726,11.8535-10.8378,7.7379-21.3396
		c-5.6816-14.498-13.1132-28.2784-17.6999-43.2285c-6.3512-20.7009-11.1909-41.7632-8.2347-63.4762
		c2.1103-15.4999,11.4026-27.313,23.8514-36.5283c15.4777-11.4576,33.2571-17.6777,51.722-22.1281
		c21.705-5.2312,43.7758-7.4209,66.0914-7.9705c15.6692-0.3857,31.1541,0.3364,46.6613,2.7664
		c12.6097,1.9761,23.3871-3.592,33.3245-10.6226c5.2781-3.734,10.2078-7.9846,15.1027-12.2238
		c1.8713-1.6208,2.7684-1.7689,3.9351,0.5708c6.907,13.8517,9.7919,28.3777,8.0997,43.8528
		c-1.755,16.0493-7.6268,30.3783-17.2703,43.2195c-1.2897,1.7175-2.9982,3.1165-4.4633,4.7085
		c-0.5493,0.5969-1.1759,1.3-0.7841,2.2064c0.4303,0.9956,1.3497,0.7898,2.1496,0.6085c12.5828-2.8525,25.1594-5.7317,37.7445-8.574
		c2.5859-0.5841,2.9506-2.8667,3.8366-4.7639c8.7779-18.7937,14.5305-38.6711,20.962-58.3097
		c1.1205-3.4216,2.6832-6.7379,4.3814-9.9216c2.2963-4.3052,5.9155-5.2488,9.2606-1.9069c4.7573,4.7531,9.2831,9.501,8.9371,17.4683
		c-0.6711,15.4529,0.5563,30.8562,5.3885,45.7128c1.952,6.0013,4.4178,11.856,8.7362,16.6318
		c9.1267,10.0938,22.2882,11.6188,35.8958,4.3536c14.4127-7.6951,26.2427-18.707,37.9378-29.8081
		c19.1887-18.2141,37.5471-37.3391,57.9506-54.2185c13.827-11.4388,28.3995-21.9529,45.6709-27.8839
		c3.762-1.292,7.6254-2.1466,11.5634-2.7637c2.9739-0.4662,3.5621,0.2625,2.5509,3.1478
		c-3.4177,9.7512-5.9048,19.6738-5.2542,30.1776c0.6652,10.7343,3.7234,20.4214,11.243,28.4321
		c3.2094,3.4188,6.9683,6.4727,8.9465,11.7338c-7.0968-1.4967-13.4744-2.8662-20.1328-3.1875
		c-34.7344-1.6747-64.7991,9.1869-89.4194,33.6327c-13.6984,13.6012-22.0061,30.6315-26.1932,49.5118
		c-4.2612,19.2146-7.1091,38.6951-10.6772,58.0387c-4.0792,22.1135-8.463,44.1747-13.0417,66.201
		c-7.2733,34.9885-15.8932,69.6259-25.9895,103.8657c-15.9989,54.2574-35.6791,107.1655-60.1824,158.2218
		c-24.9476,51.9816-54.6034,101.0664-90.0984,146.5413c-23.7053,30.3706-49.9747,58.3752-78.6007,84.1785
		c-24.3634,21.9612-50.3967,41.736-77.933,59.5071c-38.2994,24.717-78.9963,44.7129-121.6898,60.6146
		c-20.0211,7.4572-40.6193,13.1454-61.6829,16.5775c-25.14,4.0967-50.5128,6.4292-76.0315,4.5952
		c-44.318-3.1852-87.0166-13.0458-128.0184-30.5243c-36.596-15.6003-70.2948-35.8987-101.1525-60.8053
		c-29.6193-23.9071-55.7451-51.2565-78.2544-82.08c-24.6367-33.7363-43.8575-70.2363-56.9654-109.8513
		c-6.7032-20.2587-11.0514-41.093-14.2399-62.2753c-2.9364-19.5079-3.8995-38.9877-3.1805-58.5631
		c0.3805-10.3591,2.0211-20.7122,3.6714-30.975c2.3903-14.8641,5.7015-29.5402,10.1082-43.9711
		c11.0951-36.3339,28.1663-69.667,50.5358-100.2625c20.8112-28.4642,44.3575-54.3895,73.0843-75.175
		c25.1814-18.22,52.1906-32.9541,82.5763-40.4445c21.3093-5.2529,42.7994-6.6587,64.6893-2.3724
		c30.0872,5.8914,55.4776,20.219,77.9917,40.4633c15.5773,14.007,27.1507,30.5886,31.5882,51.2333
		c4.9281,22.9275-0.7078,43.8527-14.7752,62.359c-11.7362,15.4396-27.5525,25.1809-46.5147,28.6
		c-18.7538,3.3816-36.5546-0.5999-53.1003-10.2762c-12.4781-7.2974-21.4271-17.7822-28.6016-30.0631
		c4.2704,1.6654,7.3508,4.856,10.1364,8.1685c7.5943,9.0306,16.4027,16.569,26.9954,21.7064
		c8.0155,3.8875,16.6367,5.396,25.6749,5.3848c18.9345-0.0237,35.0294-6.9557,48.7547-19.4779
		c21.1104-19.26,25.2962-47.6561,10.4026-73.5013c-13.947-24.2028-33.5855-42.2374-60.6103-50.9803
		c-11.7827-3.8118-24.111-4.6309-36.4673-3.8788c-49.0694,2.986-88.4111,26.6019-123.6445,58.6924
		c-20.0809,18.2897-36.5841,39.5413-50.3772,62.8845c-4.6967,7.9486-8.8458,16.2208-13.2525,24.3545
		c3.0939-8.7649,3.2072-17.3156-1.4997-25.6906c-1.2779-2.2739-2.0676-4.8846-2.7247-7.4327
		c-1.7597-6.8237-2.6075-7.3228-9.5804-5.019c-1.095,0.3617-2.2953,0.4554-3.3367,0.9202
		c-4.0476,1.8063-8.6595,0.0391-12.6087,1.8978c-8.6366,4.0647-11.3842,12.3025-13.9679,20.5332
		c-0.57,1.8156,0.6606,3.2487,2.4387,2.5996c5.3994-1.9712,11.3137,0.1533,16.61-2.3644c2.6269-1.2487,4.3558,0.0857,4.6867,2.6189
		c0.9634,7.3761,6.3882,12.1666,10.0697,17.9567c1.9734,3.1038,3.856,2.4993,5.5623-0.4464
		C124.0181,1431.2316,124.7827,1428.7122,127.3017,1427.6016z M999.1658,1237.5178c-0.1917-13.5243-2.0541-21.4828-7.7841-32.5919
		c-13.4413-26.0593-43.9481-34.879-68.5099-19.0209c-19.9471,12.8788-28.3723,32.6563-28.8726,55.7002
		c-0.3384,15.5854,4.3887,29.7939,14.2324,42.446c13.381,17.199,40.913,22.6896,59.4608,11.3876
		C989.5118,1282.1431,998.1722,1261.9462,999.1658,1237.5178z M798.8812,1157.6694c-2.8572-3.2562-2.8538-3.2678-4.77-3.8362
		c-16.285-4.8291-31.6833-11.8636-47.0194-19.0269c-4.3398-2.027-8.6556-4.2405-12.6105-6.9178
		c-3.7011-2.5055-7.317-5.9296-6.9572-10.7291c0.3494-4.6617,4.9752-5.7566,8.7095-7.0458
		c10.1498-3.504,20.71-4.3577,31.3509-4.5966c13.8337-0.3105,27.5916,0.1398,40.9356,4.3557
		c2.2959,0.7255,5.9037,1.1998,5.6584,3.8418c-0.2235,2.4066-3.8615,2.6501-6.2538,3.1449
		c-9.1813,1.8986-18.4993,1.8486-27.8159,1.7727c-2.0725-0.0168-4.5804-0.8243-5.5787,1.9586
		c-1.0494,2.9254,0.8501,4.8408,2.9077,6.282c19.1392,13.4036,40.424,19.5858,63.7047,17.5913
		c12.8001-1.0967,16.9515-10.6306,10.3943-21.8566c-1.1984-2.0516-2.6008-3.8516-4.2797-5.465
		c-12.4512-11.9656-27.6051-18.9852-44.04-23.2673c-17.9103-4.6666-36.1245-4.8092-54.4371-2.498
		c-20.6542,2.6067-40.296,7.9587-58.3508,18.8223c-13.4083,8.0679-21.2189,19.0258-21.8231,34.9506
		c-0.8055,21.2295,2.2835,42.1381,4.8792,63.0797c2.6326,21.2401,5.8407,42.4093,8.4258,63.6545
		c1.4076,11.568,1.0026,11.4154-10.1961,14.7295c-8.7394,2.5863-17.3102,5.7413-25.962,8.6255
		c-1.4728,0.491-3.1786,1.178-2.7908,2.8739c0.3697,1.6163,2.2858,0.8608,3.5043,0.9186c6.989,0.3313,13.9546-0.1318,20.8483-1.25
		c6.0413-0.9799,12.1767-2.939,14.8672-8.6827c1.6937-3.6157,3.9695-4.9912,7.1286-5.741c2.9367-0.6971,3.9477-2.3131,4.3477-5.1792
		c1.0997-7.8798,1.9124-15.7516,2.1041-23.7234c0.1925-8.0048-0.9711-15.8975-1.3174-23.8533
		c-0.5269-12.1007-1.594-24.1769-2.2372-36.2739c-0.6638-12.4847-0.681-24.994,2.9698-37.0963
		c3.5052-11.6196,13.0004-16.6323,24.4958-12.7814c19.2684,6.4551,38.8571,11.3817,59.1252,13.1328
		C785.178,1158.1345,791.6452,1157.6694,798.8812,1157.6694z M842.5268,1438.7461c0.1558,8.014-0.8223,14.5596,3.1591,20.7271
		c6.8924,10.6772,14.9276,20.4827,22.6508,30.5032c5.4727,7.1006,10.8718,14.0338,13.7669,22.6517
		c1.6367,4.8718,4.5109,5.5753,7.9989,1.9182c8.3312-8.7356,18.5203-14.2761,29.9781-17.4966
		c13.5941-3.8207,23.6708-12.1055,30.0172-24.3901c7.4941-14.5063,9.4838-30.4016,9.5077-46.5627
		c0.0021-1.403,0.6308-3.2689-1.0775-4.0442c-1.7421-0.7908-3.4669-0.3202-5.1183,0.8547
		c-2.9553,2.1031-5.9172,4.2806-9.1368,5.9136c-11.735,5.9517-23.7,11.4692-34.9585,18.313
		c-3.7263,2.265-6.2087,1.8503-9.3253-1.439c-8.9802-9.4784-18.1489-18.811-27.7254-27.6808
		c-7.085-6.5624-13.7708-13.2146-17.3502-22.3895c-0.4065-1.0419-1.2317-1.7997-2.201-1.748
		c-1.4724,0.0784-2.1821,1.2668-2.5504,2.6439C846.3299,1410.8536,841.4103,1424.996,842.5268,1438.7461z M874.0217,1319.1219
		c-0.9449,0.6011-1.4623,0.7755-1.7321,1.1355c-0.4919,0.6563-0.8798,1.4021-1.2372,2.146
		c-4.4993,9.3643-7.3531,19.2965-8.8743,29.4877c-1.023,6.8535-0.8583,13.988,3.1702,20.1826
		c7.4246,11.4167,16.5615,21.4677,25.6547,31.5359c6.3348,7.0142,12.5716,14.1635,15.8357,23.1565
		c2.2281,6.1389,1.9522,6.2505,7.4517,2.7426c10.6739-6.8083,21.7191-12.6615,34.3952-15.1559
		c9.2885-1.8279,17.4963-6.363,23.0828-14.2104c11.5426-16.2141,12.9285-34.8906,12.2018-53.9701
		c-0.1058-2.7791-1.2153-3.1188-3.4443-1.6648c-6.4814,4.2275-13.4562,7.4088-20.7176,10.1074
		c-8.6819,3.2266-17.6373,5.937-25.6188,10.7312c-2.7997,1.6819-4.2535,1.3605-6.277-0.8193
		c-11.808-12.7216-25.7175-22.7261-40.6846-31.3911C881.5241,1329.8335,875.4755,1326.6901,874.0217,1319.1219z M876.4046,1531.418
		c-0.5245-1.2073-0.9801-1.9241-1.1531-2.7034c-3.5944-16.1929-13.2234-28.6282-24.7927-39.8479
		c-3.941-3.8221-7.7673-7.7432-10.4411-12.5867c-0.8188-1.4832-0.2377-4.1404-2.7548-4.1068
		c-2.6646,0.0353-2.6477,2.8468-3.1548,4.5278c-3.4349,11.3857-6.7804,22.8041-9.8261,34.299
		c-1.4796,5.5841-4.2501,10.8906-4.358,16.7682c-0.1675,9.1279,5.8789,15.9852,9.4225,23.6836
		c5.3676,11.6608,13.4611,22.0428,16.1484,34.9742c1.2382,5.9585,2.9453,6.7223,8.1052,3.2655
		c8.8406-5.9226,18.5043-9.1908,29.0223-10.566c9.9592-1.3024,19.2185-4.4857,26.7454-11.6858
		c13.9296-13.3248,18.9511-30.6545,22.1255-48.7932c0.6546-3.7406-1.4302-5.1726-5.7805-3.8307
		C909.1633,1519.9205,891.1424,1520.5376,876.4046,1531.418z M471.1778,1938.1067c10.9075-0.5448,20.7816-3.0096,30.3501-6.7104
		c1.3667-0.5284,3.4469-0.6814,3.6076-2.9318c0.141-1.9761-1.6146-2.2275-2.7091-3.1549
		c-5.8039-4.9188-11.9568-9.4282-17.9439-14.0823c-4.6145-3.5872-7.9425-8.6904-13.4264-11.1948
		c-1.4213-0.649-1.4094-1.7495-0.7628-3.301c2.8022-6.7229,5.178-13.627,8.0737-20.3069
		c3.9256-9.0562,5.9657-19.0525,13.0873-26.5801c0.74-0.7823,1.8587-2.1656,1.1727-3.5906
		c-0.8274-1.7185-2.4851-1.3319-3.9727-1.1803c-8.7036,0.8868-17.4476,1.962-25.7276,4.7007
		c-6.1631,2.0385-13.0592,3.6531-17.2501,9.1608c-3.6861,4.8445-6.4031,10.422-9.5992,15.6445
		c-5.5056,8.9965-9.2763,19.0868-17.4109,26.4247c-3.9632,3.575-3.6126,4.6663,1.2643,7.0554
		c6.923,3.3911,13.7238,7.316,18.1653,13.553C446.4945,1933.4056,457.9525,1937.926,471.1778,1938.1067z M531.5563,1926.2909
		c12.285-0.3204,23.233-5.054,33.962-10.4341c3.0682-1.5386,3.2753-3.5227,0.1688-5.3855
		c-4.2446-2.5453-8.1097-5.5765-12.0129-8.6187c-6.1081-4.7605-11.101-10.9211-18.1287-14.5087
		c-1.4052-0.7172-2.0134-1.7122-1.4003-3.2198c5.5739-13.7106,5.5532-28.3811,7.2198-42.7471
		c0.3494-3.0121,0.418-5.9153,2.4329-8.3652c2.1486-2.6127,1.0621-3.3428-1.8205-3.3118
		c-7.7504,0.0833-15.1205,1.9015-22.3937,4.4359c-6.6528,2.318-12.0072,5.8705-15.0916,12.5743
		c-4.3741,9.5068-7.9417,19.3119-11.6598,29.074c-2.2705,5.9617-4.3108,12.2706-9.3019,16.6271
		c-2.4491,2.1378-2.9532,2.6488,0.2782,4.5265c8.5677,4.9784,17.3823,9.7939,23.7624,17.6952
		C513.7772,1922.3191,521.4981,1926.5862,531.5563,1926.2909z M398.903,1897.2867c7.2623-6.5115,13.7422-12.6722,18.2146-21.0927
		c3.3847-6.3726,5.7981-13.37,10.4839-19.0359c1.0709-1.2948,2.413-2.7797,1.95-4.2864c-0.618-2.011-2.8752-1.9823-4.6971-2
		c-7.4961-0.0731-15.0135,0.2645-22.485-0.1838c-13.2117-0.793-21.8682,5.8246-29.6939,15.6583
		c-6.8995,8.6698-13.4967,17.9473-23.5411,23.6447c-3.0243,1.7155-2.7819,4.0109-0.2037,5.8691
		c7.1299,5.1389,12.7186,11.5636,16.648,19.4012c4.9671,9.9072,13.53,15.3323,23.6953,18.1462
		c10.3891,2.8759,21.0218,1.8826,31.5586,0.1821c3.5838-0.5784,4.5004-2.4263,2.789-5.5751
		c-0.7846-1.4437-1.5919-2.894-2.5608-4.2155C414.1866,1914.4222,409.0729,1903.6165,398.903,1897.2867z M107.3489,1479.9788
		c0.1517-3.3849-1.1132-5.995-2.8599-9.0278c-4.1046-7.1267-11.7099-11.3322-14.9304-18.9966
		c-1.4734-3.5066-4.7312-2.4182-6.3082-1.2867c-4.6282,3.3206-9.7718,4.9041-15.0401,6.7303
		c-7.7032,2.6705-13.7205,16.9602-11.2865,25c0.6037,1.9941,1.4033,2.7734,3.9762,2.0603
		c5.2737-1.4619,10.2152-3.6799,15.2684-5.6493c1.4228-0.5543,2.6175-1.285,3.975,0.2281
		c5.5993,6.2413,13.5248,9.2859,19.9646,14.3871c2.1588,1.7102,3.6696,0.7896,4.6434-1.4908
		C106.3832,1488.1128,107.2426,1484.1263,107.3489,1479.9788z M113.8455,1447.3936c0.3207-2.7354-0.5288-5.2164-1.7902-7.6252
		c-3.6846-7.0364-8.9742-13.1444-11.8642-20.6454c-1.0044-2.6071-2.8659-2.3549-4.8316-1.0873
		c-3.039,1.9598-6.0565,4.444-9.611,4.8223c-12.6918,1.3511-18.8226,11.8639-20.2978,24.0326
		c-0.1959,1.6162-1.0051,3.6731,0.473,4.7261c1.6906,1.2043,3.7033,0.4189,5.6333-0.4218
		c4.8467-2.1115,9.8537-3.8573,14.6834-6.0037c1.415-0.6288,2.5155-1.1022,3.4374,0.2847
		c4.327,6.5092,10.8484,11.234,14.6885,18.1241c0.6423,1.1523,1.0125,2.6525,2.63,2.6272c1.7856-0.0281,2.5917-1.5474,3.0511-2.9304
		C111.7673,1458.1199,113.9294,1453.0326,113.8455,1447.3936z M829.3621,1162.0638c9.4448-0.5424,18.3948-1.245,26.5836-5.3689
		c1.6437-0.8278,4.4141-1.6299,3.5457-4.058c-0.7356-2.0569-3.2536-0.9989-4.9097-0.7029
		c-6.8624,1.2266-13.8063,1.7509-20.6959,2.6678c-7.2634,0.9668-14.5266,1.3937-21.8142,1.7764
		c-1.2182,0.0641-2.5689,0.2557-2.7442,1.6219c-0.2148,1.6738,1.3831,1.2993,2.3925,1.6934
		C817.5818,1161.9812,823.8737,1160.9598,829.3621,1162.0638z"/>
	<path d="M1395.7731,545.0355c-7.0103-1.9604-13.618-3.9746-19.4293-7.9938c-12.5339-8.6686-16.7229-20.8685-14.9282-35.5009
		c0.704-5.7392,2.1444-11.3349,4.8591-16.5169c8.298-15.839,22.4915-21.2909,39.0897-20.5536
		c31.1404,1.3832,54.7047,16.6486,71.7682,42.1642c9.9482,14.8759,15.5979,31.5936,19.73,48.9765
		c4.194,17.6435,5.229,35.4422,4.2256,53.3917c-0.8307,14.8627-5.9916,28.7117-11.1101,42.5372
		c-12.4438,33.6125-31.1541,63.6409-52.4147,92.2328c-3.4752,4.6736-6.5688,9.5925-9.3909,14.6934
		c-5.0074,9.0508-4.7383,17.6622,1.7236,25.9617c6.8394,8.7839,15.1417,14.9161,26.7954,14.9366
		c5.5409,0.0098,6.8613-2.1946,4.6035-7.1529c-0.2059-0.4523-0.3088-0.9558-0.5442-1.3897
		c-3.8151-7.034-2.8137-9.0385,5.5642-9.4328c26.2305-1.2346,51.1166,3.7628,74.1663,16.7289
		c1.4204,0.7991,2.9988,1.5262,3.7677,3.4053c-20.9155,7.7255-41.5586,16.0565-60.8488,27.3264
		c-9.0576,5.2917-17.3212,11.2682-23.0864,20.6555c-5.6505,9.2005-15.5867,13.1447-25.5425,16.182
		c-12.3857,3.7786-24.7546,5.3844-37.5951,1.0147c-12.9657-4.4124-20.3442-13.3215-23.0143-26.1664
		c-2.9033-13.9679-1.8802-28.0481-0.1808-42.1667c1.8716-15.5473,5.739-30.4529,11.5044-44.9729
		c8.7-21.9102,23.8883-38.8231,40.9243-54.4697c13.5237-12.4207,26.145-25.5936,32.5143-43.4537
		c2.9706-8.3295,3.7593-16.8013,2.0753-25.4028c-1.7892-9.1391-11.8199-17.3079-23.0654-18.5245
		c-14.1816-1.5345-27.7318,0.5796-40.0851,8.3216c-11.5925,7.2653-14.7551,18.2708-8.7268,29.3577
		c2.3666,4.3527,5.2502,4.8564,8.871,2.4212c5.3702-3.6121,10.502-7.5776,15.7531-11.3679
		c5.5331-3.9941,11.1925-7.6788,17.8982-9.5782c7.46-2.113,13.7888-0.3173,19.1868,4.9506
		c5.0529,4.9312,1.9438,10.4982,0.1692,15.3156c-6.8159,18.5031-19.697,32.114-36.2595,42.3251
		c-7.2852,4.4915-14.6001,9.9601-23.5864,9.4993c-8.7721-0.4498-16.9858-2.7346-22.7465-10.8828
		c-9.7101-13.7347-24.1532-21.0713-39.5641-26.3751c-30.8538-10.6186-62.4889-13.9375-95.0841-10.8706
		c-32.7559,3.0819-63.3311,12.4541-91.4974,29.1367c-19.0077,11.2581-35.5045,25.7468-49.2496,43.2138
		c-20.6099,26.1908-33.4017,56.0366-42.1971,87.954c-7.3226,26.5729-10.9197,53.5916-10.0962,81.0132
		c0.7229,24.0768,4.1646,47.8674,16.4283,69.3145c6.1326,10.7247,14.0159,19.7511,26.3596,23.7353
		c7.5334,2.4314,15.1517,1.6666,22.7024,0.5115c14.5826-2.2309,29.1442-4.6231,43.6681-7.2088
		c14.7583-2.6273,29.5868-4.3297,44.5796-4.6251c18.755-0.3696,36.8348,1.831,52.5758,13.3323
		c11.5366,8.4295,17.6351,20.392,21.49,33.6506c6.2065,21.3472,5.222,42.9479,1.9896,64.6531
		c-5.2388,35.1757-16.4431,68.6823-28.0304,102.1006c-4.8624,14.0232-10.3293,27.8568-13.5205,42.4133
		c-0.2847,1.2982-0.4471,2.624-0.7455,3.9187c-0.5129,2.2255,0.3029,4.0975,2,5.281c1.6321,1.1379,3.4945,0.5941,5.1497-0.4852
		c7.7882-5.078,15.4882-10.3008,23.408-15.1654c12.5663-7.7185,25.3-15.0721,39.8938-18.5608
		c15.8644-3.7924,30.5125-1.1519,44.4005,7.152c13.4817,8.0607,25.2828,17.8125,32.6665,32.0038
		c6.2505,12.0134,8.6926,24.7499,7.3342,38.3523c-1.2518,12.5336-4.9221,24.2152-10.3433,35.4863
		c-7.4198,15.4265-20.3473,23.6616-36.2998,27.7355c-14.5767,3.7225-28.2985,1.6293-40.6534-7.3525
		c-10.2904-7.4812-19.4131-27.8877-13.2366-40.1299c4.5284-8.9755,12.8962-12.4359,21.2656-16.1161
		c1.5945-0.701,2.4622,0.5236,3.5571,1.1659c3.9337,2.3073,6.7733,5.8784,10.1604,8.8177c5.0984,4.4243,9.068,4.328,14.0258-0.3167
		c16.777-15.7175,11.1816-39.1534-11.6074-47.7582c-13.5725-5.1248-27.5464-4.606-41.6689-2.2777
		c-20.1632,3.3241-39.2894,10.5599-59.1118,15.1281c-3.2217,0.7424-6.4723,1.5353-9.7516,1.8181
		c-8.8029,0.7588-12.9304-4.3025-10.1486-12.6627c2.7635-8.3048,6.179-16.3923,8.9565-24.6929
		c4.6832-13.9951,7.1162-28.5916,5.1536-43.1178c-2.7079-20.0424-7.7791-39.5374-20.3076-56.3119
		c-7.95-10.6443-16.0183-21.2734-22.3915-32.9954c-5.4348-9.9957-8.9065-20.6802-9.1913-32.121
		c-0.5719-22.969,21.9048-44.7038,43.4199-42.228c10.8163,1.2446,21.5973,12.0918,24.6786,24.603
		c1.2263,4.9791,1.7032,9.8413-0.533,14.6362c-3.7911,8.1285-13.7548,11.3132-23.7704,7.693
		c-3.8143-1.3789-6.9868-3.7043-10.1293-6.1875c-2.1167-1.6726-4.3909-4.4327-7.3885-2.556
		c-3.4424,2.155-4.9763,5.7728-4.4529,9.8853c0.2915,2.2905,1.1519,4.4744,2.5892,6.4083
		c12.6884,17.0717,34.3154,20.5219,50.6055,1.0017c10.6499-12.7617,10.7308-26.2245,4.595-40.4152
		c-8.856-20.4825-24.4395-33.3353-45.8181-39.5938c-17.001-4.9769-34.0143-4.246-51.2609-1.741
		c-14.8893,2.1625-29.5543,5.0873-44.0471,9.1539c-24.5902,6.8997-46.0167,19.2663-65.0175,36.168
		c-9.3308,8.2999-18.5223,16.6982-26.1646,26.6448c-1.2246,1.594-2.1603,3.2588-2.8737,5.1637
		c-2.2596,6.0338-0.4224,8.8068,6.2289,9.2014c15.9701,0.9475,30.9059-3.3618,45.4252-9.2751
		c17.1565-6.9877,32.2621-17.0563,44.2081-31.4233c1.9287-2.3196,5.5409-5.0364,3.4556-8.064
		c-2.2517-3.2692-5.9647-0.1149-8.5691,0.8639c-11.5768,4.3505-22.4398,10.4977-34.4589,13.7885
		c-2.4331,0.6661-5.132,1.7073-6.9567-0.5605c-1.7311-2.1516-0.6691-4.6868,0.4895-7.0204c2.1532-4.337,5.5886-7.3778,9.6749-9.709
		c16.6545-9.501,34.1152-17.0713,53.1191-20.2648c12.7142-2.1366,25.5693-1.4791,38.2959,0.3871
		c6.048,0.8868,12.1824,1.545,18.004,3.6393c1.3801,0.4966,3.8673-0.662,3.8175,1.9538c-0.0416,2.1948-2.1591,2.0308-3.8035,2.3182
		c-17.3099,3.0262-33.843,8.3349-48.7362,17.8306c-12.6073,8.0382-24.9202,16.5386-37.3607,24.8384
		c-23.6172,15.7561-46.5531,32.5703-71.5209,46.2312c-7.4201,4.0598-14.8886,8.0731-23.3968,9.484
		c-5.4639,0.9059-7.33-0.704-8.3403-6.0914c-3.4189-18.231,2.3055-35.0349,7.9647-51.809
		c2.8448-8.432,6.3374-16.6454,9.5241-24.9625c0.2343-0.6115,0.5092-1.2616,0.5161-1.8965c0.031-2.8762,1.8862-6.2703-1.0845-8.4246
		c-2.9933-2.1707-5.7681,0.439-8.2122,1.7687c-8.4871,4.6176-15.8081,10.99-23.7979,16.3717
		c-11.0725,7.458-22.6067,14.0634-35.8635,16.5894c-15.1931,2.8951-29.2983-0.1396-42.062-9.1239
		c-6.6163-4.6571-12.4124-10.0667-16.3503-17.1801c-6.5292-11.7943-6.8289-24.1395-1.6295-36.3166
		c8.1716-19.1382,19.8129-35.4097,40.0717-43.451c24.0178-9.5331,50.5549,1.0898,60.5469,24.0425
		c6.2922,14.4538,3.3891,29.5288-7.8267,36.5876c-11.7039,7.366-24.5035,7.5577-37.3446,3.2462
		c-4.7598-1.5981-4.9022-3.9471-1.1434-7.5746c4.577-4.4173,8.9426-8.8245,8.8173-15.9758c-0.0717-4.0895-2.1097-6.2386-5.61-7.1362
		c-4.2678-1.0942-8.4031-0.6546-12.5781,1.2431c-12.28,5.5819-21.2212,25.6646-17.4565,35.9758
		c3.7042,10.1458,15.0601,19.5041,26.0795,20.1163c18.4501,1.0249,34.2985-6.1031,49.3762-15.4624
		c11.3505-7.0458,21.7035-15.3851,29.9241-26.0976c3.6606-4.7703,5.1428-10.0086,5.2446-16.143
		c0.3323-20.0272-3.0255-39.7493-4.2155-59.632c-0.8822-14.7413-1.6271-29.5121-0.667-44.3614
		c1.0569-16.3463,4.6533-31.9574,10.1879-47.2665c1.2824-3.5472,2.3345-7.2308,2.1602-11.1728
		c-0.2523-5.7086-2.7474-7.364-8.0426-4.8942c-5.9865,2.792-10.6823,7.3939-15.2922,11.8878
		c-7.5012,7.3126-14.4233,15.1842-20.3277,23.9146c-4.9113,7.262-12.6203,10.4772-20.4337,13.4736
		c-11.3998,4.3718-23.0902,7.2646-35.3818,7.259c-0.4999-0.0002-1.005,0.0391-1.499-0.0166
		c-3.673-0.4147-7.8276-0.7932-9.6077-4.268c-1.9936-3.8911,0.7225-7.3585,3.1993-10.2964
		c10.1565-12.0476,22.5375-21.6771,34.843-31.3203c16.3566-12.8178,32.5967-25.8555,49.696-37.6227
		c8.0079-5.5109,16.2435-10.7649,24.0971-16.5397c7.1096-5.2276,14.0873-10.6342,21.1423-15.9363
		c9.6511-7.2532,19.3672-14.4213,28.9642-21.7451c5.5941-4.269,10.9746-8.8168,16.5149-13.1578
		c11.2738-8.8333,21.87-18.4395,32.6569-27.8442c11.5239-10.0471,22.1917-20.3815,28.4858-34.5672
		c3.4187-7.7043,5.25-15.8863,7.418-23.9692c2.4243-9.0383,5.2584-17.9979,7.0736-27.1583
		c1.3555-6.8401,3.1841-13.5216,4.7749-20.2816c2.3246-9.8782,4.3722-19.8262,7.7383-29.4077
		c4.1442-11.7963,6.1604-24.3484,12.3677-35.4077c5.8948-10.5026,12.0366-20.8456,24.0225-25.6283
		c3.192-1.2737,6.3684-2.6418,9.9581-2.6397c4.7729,0.0028,5.6805,1.0273,4.3915,5.5646c-1.92,6.7571-5.62,12.714-8.5868,19.0003
		c-5.3729,11.3841-10.0413,22.903-11.6211,35.6249c-3.0183,24.3085,11.2023,44.6786,31.4093,53.6662
		c14.0886,6.2663,28.7366,6.6753,42.9668,0.1837c9.2762-4.2318,16.7002-10.3512,16.6466-21.9401
		c-0.0573-12.3528-13.6929-30.5598-25.3053-33.684c-7.2087-1.9394-14.804,4.4708-15.7379,13.4046
		c-0.5863,5.6082-1.182,11.2287-1.392,16.8578c-0.1128,3.0248-1.6733,4.0042-4.1693,4.6155
		c-17.519,4.2911-30.528-5.759-33.1886-23.8444c-3.9951-27.1559,17.1309-39.1876,35.9977-40.8982
		c14.8724-1.3484,28.0302,1.5088,38.8951,12.2318c5.2278,5.1595,9.1035,11.3717,13.2155,17.3864
		c3.6588,5.3521,7.1029,10.8519,10.802,16.1752c11.5433,16.6119,28.9934,24.4993,47.1801,30.6315
		c24.5854,8.2898,44.7181-0.9578,62.3068-17.9238c5.4938-5.2993,11.4169-10.4307,13.8784-17.9733
		c4.0259-12.3369,2.2405-24.5648-1.811-36.5168c-2.5677-7.5748-6.2216-14.6942-11.6826-20.6538
		c-4.368-4.7667-9.4236-9.1931-16.3961-7.4947c-7.6404,1.861-13.0593,6.7832-15.668,14.5718
		c-2.9552,8.8232-0.8253,17.416,0.7821,26.0338C1395.7346,540.3548,1396.3953,542.3874,1395.7731,545.0355z"/>
	<path d="M1638.9824,536.7656c19.4705-8.1299,33.364-21.6405,41.9866-40.2999c9.6697-20.9252,12.8572-42.7706,3.6637-64.5934
		c-8.2709-19.6328-28.3212-34.3921-51.9231-32.05c-20.3781,2.0222-37.229,10.5987-49.3141,27.2088
		c-8.1997,11.2701-7.7213,26.4572,0.036,36.253c6.2814,7.9319,17.8397,8.3961,23.0748,0.6215
		c2.9022-4.3102,2.4888-9.5132,1.9009-14.463c-0.7057-5.9414,0.2714-11.6943,2.3295-17.1223
		c5.6041-14.7807,21.3522-18.9011,35.316-13.2739c5.5507,2.2368,9.478,6.3317,13.6765,10.8099
		c11.816,12.6028,11.9618,27.3771,10.2998,42.673c-1.088,10.0136-3.2948,19.8131-9.3602,28.4189
		c-7.7086,10.9368-18.6791,16.5125-31.1836,18.8054c-24.4987,4.4923-46.9575-1.4813-66.4556-16.6014
		c-20.4723-15.8754-28.5011-37.163-24.2813-62.9477c3.4569-21.1226,13.0197-38.9134,29.1478-52.8875
		c13.8949-12.0392,30.3492-19.3964,47.9481-24.3452c27.3545-7.6922,55.2944-8.6924,83.481-7.8856
		c16.1713,0.4629,32.1313,2.4714,48.0657,4.8612c5.7025,0.8553,11.2592,2.6543,16.9088,3.9031
		c2.3894,0.5282,5.7864,1.6788,6.9893-0.3912c1.5514-2.6694-1.9606-4.1873-3.7306-5.6014
		c-9.0869-7.2592-19.8932-11.1447-30.6716-14.9843c-11.7522-4.1865-23.9098-6.7784-36.2598-8.3635
		c-10.923-1.402-21.9387-1.3947-32.9133-0.9943c-23.7191,0.8652-46.6438,5.9944-68.9813,13.8133
		c-16.6302,5.8211-32.6234,13.077-47.8121,22.053c-1.1375,0.6721-2.2922,1.4803-3.543,1.7609
		c-2.573,0.5774-5.252,0.2285-6.4786-2.3416c-1.1879-2.4884,0.9312-3.802,2.7561-5.1328
		c13.8304-10.0857,28.4368-18.8544,43.6821-26.6476c3.115-1.5923,6.642,0.0668,9.3893-2.4388
		c5.2084-4.7499,11.7216-7.0212,18.2463-9.3106c30.7214-10.7795,62.2377-15.5804,94.7852-12.9232
		c1.0393,0.0849,2.6459,0.6645,2.7324-1.1146c0.0569-1.1698-1.2642-1.2345-2.264-1.4553
		c-5.507-1.2161-10.7444-3.1958-15.7874-5.7121c-0.871-0.4346-2.2106-0.6741-1.8674-1.8616c0.2257-0.7814,1.276-1.688,2.1035-1.8689
		c3.441-0.7523,6.9299-0.5552,10.4395-0.2541c3.2603,0.2797,7.2854,1.1231,9.0524-2.3646c1.7411-3.4365-1.3038-6.2398-3.3361-8.7394
		c-9.0645-11.1491-25.2626-12.8886-39.3925-4.8706c-5.4012,3.0649-9.0543,7.227-11.871,12.5797
		c-1.4718,2.7969-0.7014,4.5253,1.6915,5.7091c3.1873,1.5769,6.5375,2.8245,9.7958,4.666
		c-7.4015,1.3143-14.7028,3.8441-22.2679,1.1336c-1.6458-0.5896-4.0808-2.2428-2.1125-3.9159
		c6.2467-5.3102,8.756-13.3483,15.9004-18.3813c19.1906-13.5192,45.929-11.2764,63.4983,2.3749
		c5.2693,4.0941,9.9083,8.877,14.1028,14.0846c1.7115,2.125,3.4741,4.3311,2.2434,7.1629c-1.1494,2.645-4.0585,2.6388-6.4208,3.1828
		c-2.2275,0.513-4.6377-0.4034-6.8651,0.5874c-0.1414,1.9802,1.3575,1.5225,2.3684,1.7054
		c37.816,6.8412,72.2797,21.6864,103.7439,43.6068c4.4944,3.1313,8.8066,6.5824,12.8799,10.2452
		c5.2181,4.6927,5.8842,11.0196,4.694,17.4339c-3.2035,17.2651-10.8872,32.7256-20.1543,47.4081
		c-12.8887,20.4203-27.3035,39.6299-44.3081,56.9352c-9.7202,9.8923-33.8636,18.8117-48.2274,11.4182
		c-11.9791-6.166-18.7128-16.3547-22.6354-28.8851c-6.8802-21.9782,7.1807-47.1471,26.0093-55.6273
		c12.1997-5.4947,27.557,1.2293,33.3395,8.6325c7.16,9.1664,4.1309,21.9837-6.6708,27.3148
		c-3.989,1.9688-8.302,3.3076-12.5234,4.7713c-3.3867,1.1742-6.7896,2.3059-7.3594,6.4763
		c-0.653,4.7776,0.7522,8.9457,4.6299,11.9688c8.5505,6.666,22.3894,5.3937,31.6477-2.8598
		c7.7384-6.8987,11.2413-15.8655,13.7986-25.7512c3.2676-12.6313,0.3375-23.3242-7.5529-33.0401
		c-7.5442-9.2895-17.1489-15.2333-28.8428-18.4095c-24.1786-6.5673-52.047,10.0061-59.9783,25.8611
		c-5.6831,11.3607-4.5122,22.7892-1.0111,34.3393c3.6654,12.092,10.0859,23.0003,14.9078,34.5948
		c1.3879,3.3377,2.614,6.7686,3.5811,10.2493c1.2667,4.5587-0.5344,8.3965-3.302,11.9796
		c-9.2632,11.9918-21.7908,18.8151-36.1721,22.3102c-13.2266,3.2145-26.7136,2.845-40.1729,1.4843
		C1640.8623,537.3555,1639.9283,537.0007,1638.9824,536.7656z"/>
	<path d="M1367.6974,440.3708c-31.3785,1.6101-60.1901-3.2915-86.8889-18.3255c-14.6853-8.2693-20.2606-23.6902-18.1703-39.4391
		c2.5734-19.3864,9.8491-36.6636,22.8649-51.3933c0.874-0.9892,1.7094-2.0577,2.745-2.8511
		c3.7802-2.8957,6.8096-1.7606,7.3333,2.9097c0.7588,6.7653,1.6006,13.5271,1.5653,20.369
		c-0.0232,4.513-0.0486,10.1163,4.8979,11.4802c4.8116,1.3267,7.3096-3.6579,9.4325-7.3736
		c5.7684-10.0966,9.1125-21.2233,13.1245-32.0478c10.8169-29.1844,23.8838-57.177,43.4974-81.6213
		c14.38-17.9216,31.6097-32.6805,51.5244-44.1923c2.6368-1.5242,5.7961-2.1305,8.6843-3.238
		c3.8269-1.4675,6.7058-4.6522,10.3356-6.2585c8.213-3.6346,16.8322-4.4576,25.4446-1.2137
		c10.3208,3.8874,11.5317,11.1749,3.1752,18.3958c-9.1564,7.912-10.8979,15.668-5.6594,24.3577
		c2.2534,3.7381,5.5684,5.1168,9.6372,4.7827c23.9502-1.9664,39.1619-25.4993,31.1467-48.3494
		c-6.2808-17.905-19.9691-27.0106-37.8427-30.4531c-6.8868-1.3264-13.2532,1.2391-18.3481,5.87
		c-5.9044,5.3665-11.1223,11.4892-17.037,16.8429c-4.5881,4.1528-9.6306,7.8629-14.7656,11.3341
		c-4.4515,3.0092-8.8041,0.5694-12.5833-1.7782c-7.7408-4.8088-10.4119-15.2866-5.5583-23.2296
		c11.0573-18.0954,26.094-31.2572,46.2676-37.1832c26.1406-7.6788,50.193-3.4443,69.6433,17.1441
		c8.4797,8.976,13.2759,20.0007,16.0602,32.0013c6.6165,28.5185-8.3365,47.0478-29.0007,62.8841
		c-10.019,7.6782-21.667,11.6759-34.0758,12.8651c-11.5885,1.1105-22.6437-1.6849-31.8687-8.8712
		c-8.7692-6.8311-17.6543-7.3054-27.5403-3.4322c-14.0934,5.5217-25.5244,14.6854-35.8279,25.4824
		c-15.7046,16.4569-27.4376,35.2361-34.0841,57.1442c-7.8643,25.9221-5.689,51.0274,5.3622,75.554
		C1347.8821,413.393,1356.2786,427.1901,1367.6974,440.3708z"/>
	<path d="M1055.9827,871.0218c0.8131-51.7521,15.9126-95.1711,49.9352-131.6507c23.7007-25.4124,50.7383-45.3289,84.0018-56.0798
		c20.2299-6.5383,40.9382-9.2418,62.3148-8.5486c28.7694,0.9328,55.9314,7.7134,81.8882,19.7394
		c7.9775,3.6962,15.5651,8.0516,22.2262,14.072c12.3417,11.1541,13.981,27.085,3.0797,39.7568
		c-10.3286,12.0062-23.0001,19.4067-39.4476,15.4516c-8.7937-2.1147-17.2554-5.6574-25.8076-8.7206
		c-24.5806-8.8041-49.7147-12.3323-75.2119-5.4247c-29.9554,8.1155-55.2579,23.9638-74.2463,48.9399
		c-15.4805,20.3621-23.5396,43.7055-27.9474,68.7255c-3.4359,19.5033-3.158,39.03-2.5854,58.6135
		c0.1638,5.6061,1.5582,11.1737,2.3513,16.7642c1.5667,11.0447-0.101,21.2924-8.2534,29.5227
		c-7.5338,7.6056-15.0889,7.2623-22.3422-0.5859c-9.4543-10.2297-14.6825-22.7787-19.0663-35.6661
		C1059.4346,914.0674,1056.6145,891.3968,1055.9827,871.0218z M1069.7649,877.8761c-0.0121,14.7134,1.7087,29.2166,6.1934,43.2448
		c2.8191,8.8182,5.9677,17.6081,13.0459,24.2166c4.7576,4.4419,9.8715,2.941,11.514-3.4027
		c0.7653-2.9556,0.4929-5.9453,0.5234-8.939c0.1079-10.5987-3.6715-20.6675-2.5669-31.6343
		c2.0094-19.9512,4.7314-39.6229,10.8461-58.7534c8.2531-25.8202,20.827-49.0151,40.3083-68.2762
		c7.827-7.7385,16.424-14.3928,25.4745-20.4809c13.1907-8.873,26.9131-16.7929,42.0703-21.9973
		c14.2642-4.8978,28.5067-6.0425,42.9634-0.9281c5.6421,1.996,11.313,3.9448,17.0618,5.598
		c12.1711,3.5002,24.217,3.7421,35.9504-1.9236c6.5646-3.1697,11.3813-11.8477,5.558-19.9279
		c-6.1222-8.4948-15.2291-12.6681-24.1482-16.7645c-18.905-8.6829-38.8384-11.5508-59.7084-10.1447
		c-25.7911,1.7377-48.7404,10.8543-69.9961,24.7703c-19.4371,12.7254-35.8721,28.7125-50.3926,46.9095
		c-10.3647,12.9892-19.4421,26.6741-26.7097,41.5326C1075.9038,825.1996,1069.7621,850.8368,1069.7649,877.8761z"/>
	<path d="M1080.2489,573.337c7.1906-5.2305,14.073-10.324,21.0447-15.2924c24.9286-17.7653,51.2-33.21,79.2119-45.6257
		c1.139-0.5048,2.3602-1.982,3.546-0.7657c1.1443,1.1739,0.3318,2.7742-0.0784,4.2389
		c-2.7725,9.9005-7.7456,18.8458-11.9869,28.1176c-6.3113,13.7969-13.2843,27.2719-19.7456,40.9822
		c-3.3987,7.2115-6.3799,14.5446-10.694,21.3195c-1.1238,1.7646-2.5886,2.843-3.964,3.2635
		c-11.3911,3.483-21.0641,10.2161-30.9093,16.4464c-15.6571,9.9079-29.4181,22.2404-42.0132,35.7955
		c-5.9161,6.367-10.7756,13.7753-17.0304,19.7529c-7.4567,7.1262-16.4945,8.5922-27.0892,6.9123
		c-11.8945-1.886-23.8754-1.5953-34.6589,6.7654c-15.7842,12.2376-26.4521,28.1304-34.5632,45.7311
		c-5.0701,11.0016-6.2933,23.5336-1.7331,34.9884c4.4149,11.0898,10.5211,14.6509,23.8735,9.0582
		c12.8517-5.3829,22.7326-14.6312,29.1147-26.5451c5.1216-9.5608,5.2459-21.5196-9.6981-25.5657
		c-1.8604-0.5037-3.5096-1.3958-5.5883-1.5518c-3.8388-0.2881-5.9606-4.5906-4.3737-8.2375
		c5.0256-11.5496,13.5787-18.8019,26.0566-21.2211c6.8447-1.327,9.2284,0.586,10.5026,9.3234
		c0.8261,5.665,2.2755,11.2856,1.5847,17.1343c-1.5381,13.0236-3.8144,26.103-11.0115,37.0999
		c-6.2648,9.5723-14.237,17.6159-25.9308,21.9951c-16.7657,6.2783-30.9037,17.3231-44.2705,29.1624
		c-6.801,6.0238-13.612,12.0414-20.5831,18.5141c1.212-6.7242,2.2352-13.4889,3.6684-20.1656
		c6.4306-29.9575,15.9609-58.8487,29.2366-86.5328c13.1381-27.3973,29.1926-52.9099,48.1369-76.6071
		c12.2634-15.34,24.9435-30.3448,40.0076-43.088c14.316-12.1103,29.9167-22.1254,48.4104-26.4007
		c6.3452-1.4669,12.9596-3.0436,19.7339-1.3531c3.349,0.8358,4.87,1.535,3.2954,5.5845
		c-5.608,14.4224-16.3114,23.4253-29.9799,29.5434c-10.1635,4.5492-21.4832,5.5566-31.5646,10.3889
		c-13.4127,6.4288-26.183,13.7897-36.2165,25.0437c-2.3593,2.6461-5.6876,5.7111-3.5403,9.5849
		c2.333,4.209,7.0121,3.1088,10.8526,2.6276c30.4641-3.817,56.2776-17.5786,79.4703-37.112
		c20.1875-17.0023,36.5057-37.2324,50.6268-59.362c2.5017-3.9207,4.5819-8.1032,6.0509-12.5265
		c2.0194-6.081-0.4131-9.5174-6.7264-9.3216c-7.7871,0.2415-14.7159,3.6663-21.6035,6.749
		c-14.9546,6.6934-29.7255,13.7976-44.5524,20.7744C1083.3577,573.5292,1082.283,574.3555,1080.2489,573.337z"/>
	<path d="M1573.6213,782.3682c-10.3658,0.7173-19.2852-2.3467-27.8411-6.5313c-12.533-6.1293-25.3374-11.5438-38.8704-14.9833
		c-11.3108-2.8749-22.7596-4.6501-34.2858-0.9536c-3.7051,1.1882-6.8123,3.4182-9.5637,6.1299
		c-2.3711,2.3367-4.7019,4.7149-7.0206,7.1038c-4.917,5.0658-9.0602,6.388-12.5536,3.9704
		c-4.678-3.2374-6.3949-10.7057-3.7079-16.1281c7.3673-14.8665,29.1154-27.1597,45.6472-26.3706
		c17.1029,0.8165,31.2946,8.9351,45.5415,17.1158c12.9167,7.417,24.814,16.6929,39.2302,21.3783
		c4.3953,1.4285,8.8621,1.3601,13.2622,0.6272c4.6071-0.7675,5.9574-3.9965,3.9906-8.4309
		c-3.4285-7.73-9.9554-13.2287-14.5168-20.1442c-0.8214-1.2452-1.6927-2.4637-2.6194-3.6324
		c-15.5955-19.6699-0.6825-41.4767,15.4775-47.1442c28.5085-9.9987,52.6736-1.6669,73.9893,18.0245
		c10.8829,10.0536,18.2261,22.4205,22.2889,36.5349c3.4425,11.9591,3.6506,23.8635-3.6979,34.8976
		c-10.3993,15.6149-23.6907,26.822-43.1232,28.8297c-9.2213,0.9528-17.3972-1.8334-24.5913-7.5303
		c-3.3192-2.6284-4.4886-5.8748-2.8495-10.1494c2.0782-5.42,5.7328-9.6935,9.4023-13.959
		c6.5051-7.5613,13.076-15.0173,18.6107-23.394c10.6216-16.0751-0.1996-43.5396-14.0488-47.7213
		c-11.9742-3.6154-24.4227,1.2446-30.2421,10.5066c-4.3065,6.8545-1.8026,14.1008,2.134,20.6135
		c3.9779,6.5808,8.7916,12.5569,14.6748,17.4987c5.6721,4.7644,4.8218,8.2604-0.4005,13.1285
		c-5.6367,5.2544-12.8372,7.5192-20.1265,9.1816C1582.9924,781.9357,1578.0997,783.2821,1573.6213,782.3682z"/>
	<path d="M1268.6489,330.9988c-2.2373,6.9945-4.5613,13.9627-6.6949,20.9888c-5.542,18.25-8.5143,36.9967-6.6298,55.9458
		c1.6879,16.9728,7.6259,32.4133,23.9917,41.2512c9.6755,5.2249,20.2009,5.5989,30.9115,5.4873
		c15.1808-0.1581,29.9061-4.2993,45.0148-4.7434c8.4124-0.2472,10.1313,2.8004,6.1876,10.377
		c-5.3304,10.2403-13.2009,18.7057-19.8816,28.0005c-6.7698,9.4188-11.3867,19.3296-9.9713,31.3455
		c0.5577,4.7343,2.2474,8.9765,4.5741,12.9728c7.0129,12.0457,16.1869,22.2817,29.0945,27.7708
		c16.417,6.9814,31.1914,2.1545,44.2882-8.975c3.0474-2.5897,5.5638-5.7086,7.845-9.006c0.9451-1.3661,1.9271-2.7195,3.0181-3.9689
		c1.9343-2.2148,4.3733-4.3801,7.3124-2.8997c3.2251,1.6244,3.484,5.1732,2.7351,8.347c-1.1033,4.6753-2.7826,9.2108-5.4153,13.2773
		c-8.7946,13.5845-21.6094,20.832-37.3976,22.7075c-29.1808,3.4662-52.5554-9.0882-73.234-27.8597
		c-24.7831-22.4974-40.1187-51.2627-52.7432-81.6955c-4.6105-11.1138-8.5796-22.4657-11.6437-34.0917
		c-2.5144-9.5411-2.5609-19.3927-2.3297-29.1837c0.5452-23.0887,5.0771-45.3635,14.2813-66.6024
		C1263.4661,336.9738,1265.2642,333.6092,1268.6489,330.9988z"/>
	<path d="M1135.4033,859.7188c0.472-37.6837,17.9331-65.3384,50.1555-84.0327c19.3514-11.227,40.1073-18.5956,62.7214-18.1176
		c14.8531,0.3141,29.0941,3.9758,39.3853,16.0071c10.6316,12.4292,6.7889,25.9628-5.4117,34.6301
		c-10.1003,7.1752-21.962,9.7368-33.9019,11.8022c-17.0869,2.9559-34.4611,4.6588-50.7249,11.2374
		c-23.4504,9.4855-38.3197,27.2001-47.4644,50.2187c-1.8207,4.583-3.1066,9.3765-4.7164,14.0463
		c-0.5159,1.4961-0.7301,3.6788-2.73,3.6586c-1.6907-0.0172-1.2178-2.1172-1.5819-3.2602
		C1137.3925,884.163,1135.1343,872.1698,1135.4033,859.7188z"/>
	<path d="M1475.9916,461.9764c1.6323-33.8164,17.157-58.4169,45.5055-75.2075c2.415-1.4305,4.7709-2.9711,7.251-4.2766
		c0.9841-0.518,2.3619-0.8236,3.3148,0.0493c1.3264,1.2152-0.2446,2.0539-0.7067,2.9696c-2.46,4.8753-7.0597,7.8939-10.4966,11.9346
		c-9.506,11.1765-16.6412,23.6869-19.5313,38.0495c-3.55,17.6446-0.1724,34.4801,9.8252,49.4283
		c13.8713,20.7398,31.1593,37.9596,53.9841,48.9855c9.2915,4.4884,19.3729,5.5276,29.3464,6.9638
		c4.6711,0.6727,8.6173,2.2733,9.9602,6.9467c1.5084,5.2493,1.3442,10.5613-2.7892,14.9209
		c-7.1313,7.5213-16.3492,9.6094-26.2162,10.1874c-13.2427,0.7759-24.6035-4.2067-35.2808-11.2962
		c-13.5905-9.0238-26.2734-19.1183-37.6594-30.891c-12.3995-12.8207-19.1215-28.4075-23.3641-45.3284
		C1477.1526,477.5074,1476.6666,469.3881,1475.9916,461.9764z"/>
	<path d="M993.7936,860.2388c-3.3563,25.0191-1.5468,49.0969,1.648,73.1854c1.6997,12.8157,2.7999,25.7173,3.8849,38.6042
		c0.3241,3.8483,1.5499,9.3098-2.0797,11.0495c-3.4082,1.6337-6.0286-3.2519-8.3475-5.9071
		c-9.618-11.0128-18.1827-22.9083-28.106-33.6743c-5.0881-5.5201-10.3515-10.9174-16.8076-14.7701
		c-13.5795-8.1036-27.277-5.3129-37.0518,7.173c-4.3787,5.5932-6.5064,5.3355-9.7845-1.1856
		c-5.4487-10.8391,0.6371-32.5845,10.9099-39.0977c3.4709-2.2007,6.551-1.825,9.3383,1.1633
		c0.2267,0.2431,0.4578,0.4924,0.6321,0.7728c8.3085,13.361,21.092,11.8685,32.5394,4.945
		c11.2167-6.784,20.4688-15.8746,29.1527-25.5502C984.3723,871.7657,988.7074,866.3013,993.7936,860.2388z"/>
	<path d="M1028.9242,735.0486c5.8024-12.1059,11.8214-24.1064,19.3418-35.3536c7.2223-10.8011,15.533-20.7902,24.6328-29.869
		c10.6002-10.5756,22.5201-19.8158,35.244-27.9178c6.634-4.2242,13.7601-7.4139,20.7313-10.9457
		c0.8638-0.4376,1.6885-1.5273,2.6207-0.744c0.9641,0.8101,0.7646,2.1297,0.3184,3.2526
		c-4.4689,11.2449-9.9708,21.897-17.6176,31.3746c-6.3069,7.8167-12.4039,15.8468-19.8833,22.5799
		c-10.3281,9.2975-20.6805,18.5372-32.0939,26.6076c-10.2515,7.2488-20.3524,14.6606-31.3501,20.7552
		C1030.384,735.057,1029.9663,735.8015,1028.9242,735.0486z"/>
	<path d="M1308.4474,347.1116c-1.3019-9.3879,0.4257-17.1647,1.7151-24.9601c1.1914-7.2022,2.767-14.3325,2.4858-21.7279
		c-0.1027-2.6985-0.5369-4.9335-2.8823-6.4448c-2.6016-1.6764-4.6906-0.0372-6.8859,1.1036
		c-2.1541,1.1194-3.5887,3.4189-7.2039,4.0416c6.2833-9.5954,11.984-18.6474,18.0316-27.4613
		c11.2919-16.4571,23.7203-32.0238,37.9995-46.0038c8.1908-8.0191,16.9285-15.4546,26.3844-21.9839
		c1.1711-0.8087,2.6959-2.3764,3.9657-1.3135c1.8953,1.5866-0.4252,3.083-1.1317,4.2246
		c-7.9752,12.8878-17.8199,24.4158-26.9519,36.4593c-16.8358,22.2032-28.2737,46.9598-36.1187,73.583
		c-2.6602,9.028-5.2312,18.0635-7.5039,27.1916C1310.1659,344.5643,1309.5687,345.2061,1308.4474,347.1116z"/>
	<path d="M1416.379,1187.3857c-3.8335,2.2185-6.6631,0.7759-9.4039,0.9442c-11.4489,0.7035-20.9038,7.0676-31.3649,10.5229
		c-9.3862,3.1005-18.5819,6.8363-28.6927,6.9209c-3.4872,0.0292-6.9854-0.3136-8.444-3.9106
		c-1.4785-3.646-0.4313-7.005,2.3625-10.0275c9.5242-10.3041,20.1296-18.5275,34.4469-21.2723
		c5.231-1.0031,10.0868-0.1825,14.6694,1.2577C1399.6644,1174.8733,1407.4121,1181.5267,1416.379,1187.3857z"/>
	<path d="M1464.436,1252.0562c-12.2324-6.0907-24.7926-4.1816-37.3746-3.5728c-10.2639,0.4969-20.6244-0.176-30.6705-2.6217
		c-3.8706-0.9424-8.2467-2.234-8.8314-7.4948c-0.3429-3.0861,0.6266-5.6501,3.3351-7.225
		c9.8525-5.7281,20.1799-9.8162,31.8368-10.1576c12.7435-0.3734,22.8809,4.2909,30.6277,14.3521
		C1457.3958,1240.579,1461.5494,1245.7361,1464.436,1252.0562z"/>
	<path d="M468.2299,1382.1925c6.9243-12.0713,11.3978-26.0278,25.6853-32.088c12.8235-5.4393,25.6518-3.5193,38.3831,0.5397
		c2.3539,0.7505,4.704,1.6154,6.9037,2.7281c5.9563,3.0134,6.4263,9.1794,1.0125,13.0376
		c-4.8519,3.4578-10.6579,4.3247-16.2672,5.6626c-12.9986,3.1005-26.4088,2.5784-39.5644,4.3942
		C478.5544,1377.2712,473.8745,1380.6404,468.2299,1382.1925z"/>
	<path d="M479.4659,1306.4626c17.02-23.0267,33.2202-33.7207,60.7816-21.0072c4.3807,2.0208,8.5612,4.3835,12.5015,7.2017
		c3.3693,2.4099,6.8168,5.0966,5.7892,9.5793c-1.1835,5.1628-5.9913,6.455-10.5287,6.7863
		c-9.9803,0.7286-19.9459-0.0613-29.8356-1.4802c-6.3967-0.9178-12.7606-2.0947-19.108-3.3175
		C492.6982,1302.9983,486.6399,1304.8042,479.4659,1306.4626z"/>
	<path d="M536.6956,1248.3022c9.7802-4.7401,18.4566-10.1459,28.5057-11.98c8.4683-1.5458,16.4807,0.7664,23.7731,5.1715
		c9.5912,5.7938,17.0444,13.782,22.671,23.4194c3.4321,5.8784,0.3917,11.1687-6.2437,11.1614
		c-10.5636-0.0116-19.139-5.6703-28.2476-9.9065c-9.4649-4.402-17.58-11.2882-27.5673-14.7065
		C545.6437,1250.1119,541.2862,1250.7213,536.6956,1248.3022z"/>
	<path d="M1307.9867,1428.1564c5.0958-6.8213,8.8871-14.1122,10.3553-22.3584c1.8252-10.25,4.4971-20.2592,7.7787-30.1151
		c1.7771-5.3372,4.0601-10.4387,7.5239-14.9622c2.0026-2.615,4.4802-4.0125,7.733-3.3365c2.9612,0.6154,4.6842,2.4456,5.5592,5.561
		c4.3927,15.6387,4.9211,30.9121-3.609,45.4769c-2.3932,4.0863-5.7401,7.417-9.7721,9.7825
		C1325.6934,1422.817,1317.1549,1425.8964,1307.9867,1428.1564z"/>
	<path d="M611.5245,1501.735c-23.996-9.2839-39.1122-21.2704-36.0107-48.301c0.819-7.1372,2.597-13.9482,5.1611-20.6071
		c1.283-3.3319,3.4705-5.8888,7.1152-6.1686c3.8146-0.2928,5.8731,2.4349,7.5179,5.5277
		c4.6904,8.8192,5.5084,18.5728,7.1479,28.1757c1.8082,10.5913,0.1769,21.6687,4.4951,31.875
		C608.2742,1495.3643,609.8923,1498.3672,611.5245,1501.735z"/>
	<path d="M1411.8103,1409.7206c-0.7861-17.2272-12.3259-27.8855-19.4169-40.7845c-4.5363-8.2523-9.7405-16.2157-10.9186-25.8806
		c-0.3531-2.8962-0.3491-5.8373,2.3518-7.6316c2.9277-1.9448,5.9865-2.2142,9.2584-0.1854
		c7.8082,4.8419,15.3054,10.054,21.0671,17.3151c9.9546,12.5448,12.0359,26.246,5.3534,40.9681
		C1417.2349,1398.5245,1415.7686,1403.9365,1411.8103,1409.7206z"/>
	<path d="M510.4699,1467.9369c-2.9795-4.0811-3.0845-8.8448-4.3562-13.1761c-3.2565-11.0913-4.14-22.179,2.2474-32.5479
		c7.6589-12.4327,19.1423-20.0159,32.8347-24.2755c5.5732-1.7338,9.3593,1.7966,9.0497,7.5828
		c-0.2119,3.9609-2.1286,7.2798-3.979,10.6017c-6.4445,11.5687-15.4777,21.1611-24.106,31.0249
		c-4.6723,5.3413-8.5313,10.9346-10.0933,17.9497C511.864,1466.0084,511.1262,1466.8013,510.4699,1467.9369z"/>
	<path d="M1509.292,47.1799c1.5813,1.3543,0.3744,2.4964-0.4122,3.6199c-3.2474,4.638-5.3234,9.5986-6.3713,15.3069
		c-1.7476,9.518-2.9147,19.1675-5.598,28.5118c-1.3235,4.6086-2.8021,9.1872-5.1096,13.3577
		c-1.5817,2.8587-3.7719,5.8019-7.7545,5.1929c-3.748-0.5731-5.4308-3.4558-6.3777-6.8053
		c-2.9056-10.2791-4.4347-20.6408-1.4897-31.1931c2.1354-7.6515,6.266-14.0204,13.1915-18.0387
		c6.0785-3.5267,12.4963-6.4689,18.7704-9.6571C1508.4215,47.3323,1508.7639,47.3109,1509.292,47.1799z"/>
	<path d="M1738.7086,842.5827c-3.2848-6.8508-7.792-12.6138-13.7195-17.2206c-7.4901-5.8215-14.4033-12.2817-20.9673-19.1185
		c-3.2354-3.3699-6.2388-6.9404-8.1392-11.2629c-1.1042-2.5113-1.5908-5.281,0.376-7.4874
		c2.0491-2.2985,4.4371-3.3002,7.9778-2.2726c10.7771,3.1277,20.9894,6.9604,28.859,15.5152
		c5.0454,5.4849,7.8308,11.6567,8.1504,19.1554C1741.5664,827.4129,1740.6027,834.7685,1738.7086,842.5827z"/>
	<path d="M1604.4796,184.6873c-7.3529-6.1239-16.2567-7.5439-24.9275-9.2018c-8.1008-1.5489-16.222-2.8838-24.1266-5.3081
		c-4.1378-1.2691-8.0399-3.0328-11.7295-5.2543c-2.3896-1.4388-4.4828-3.6802-4.1281-6.3827
		c0.3718-2.8321,1.876-5.3726,5.3646-6.3807c15.6738-4.5291,30.8763-5.893,44.9293,4.8052
		c2.2285,1.6965,3.5576,3.9125,4.9965,6.1098C1599.1824,169.6784,1601.7749,177.0661,1604.4796,184.6873z"/>
	<path d="M1729.2235,735.4048c9.5315,0.4728,18.0203,3.8553,24.3448,11.8004c2.9989,3.7673,6.051,7.4921,9.0496,11.2596
		c0.5809,0.7302,1.6426,1.4872,0.8611,2.5444c-0.5355,0.7245-1.5016,0.5016-2.3014,0.1519
		c-7.2614-3.1743-14.6809-2.5859-22.3988-1.9c-12.007,1.0669-24.1564,2.0505-36.1304-0.7489
		c-3.192-0.7463-6.5876-1.4895-7.4486-5.475c-0.895-4.1429,1.4991-6.5841,4.6591-8.47
		C1708.798,739.2328,1718.3754,735.8659,1729.2235,735.4048z"/>
	<path d="M1685.3615,652.454c-0.4506,0.7805-0.5674,1.2557-0.7712,1.2966c-13.7946,2.7695-22.344,13.7811-33.2142,21.1331
		c-5.8888,3.9827-11.538,8.3658-18.382,10.6837c-3.3529,1.1356-6.7506,2.061-9.6926-0.9588
		c-2.8896-2.9659-1.6772-6.0961-0.2249-9.1733c6.0349-12.7865,13.9404-23.7915,28.2357-28.2351
		c6.5128-2.0244,13.1095-1.2925,19.5627,0.6818C1675.6769,649.3509,1680.4539,650.9017,1685.3615,652.454z"/>
	<path d="M1743.3048,695.9508c-13.7858-2.691-25.39,4.6107-37.9069,7.7384c-7.8503,1.9617-15.6143,4.363-23.9021,3.8035
		c-3.0709-0.2073-5.9427-1.0432-7.0134-3.7808c-1.0732-2.7438-0.5549-5.6261,1.9471-8.1413
		c9.9982-10.0507,21.156-17.6503,35.9749-17.6362c9.5389,0.0091,16.8118,5.4234,23.9601,10.8842
		c2.4603,1.8795,4.7993,3.9179,7.1938,5.8837C1743.4738,695.1185,1743.3893,695.5347,1743.3048,695.9508z"/>
	<path d="M1654.1766,885.4631c4.0913-7.0604,3.8351-14.668,3.4331-22.1776c-0.4526-8.4598-1.1923-16.9064-0.8171-25.3805
		c0.2336-5.2789,0.6079-10.5806,2.4362-15.6198c2.056-5.6677,8.5067-7.3729,11.5493-2.5482
		c8.825,13.9939,14.3984,28.8188,7.1338,45.4073c-2.6097,5.9593-7.5262,9.9783-12.6956,13.6945
		c-3.2842,2.361-6.4476,4.8902-9.6652,7.3439C1655.093,885.9429,1654.6349,885.703,1654.1766,885.4631z"/>
	<path d="M1419.2866,454.8588c12.3018-13.1006,24.6493-24.0017,40.8452-29.5902c1.531-0.5283,3.1125-1.4791,4.666-0.0197
		c1.6215,1.5233,1.2356,3.2343,0.558,5.0574c-2.7345,7.3584-4.0006,14.7796-3.3868,22.8095
		c0.6298,8.2389,3.0063,15.8507,5.4727,23.5463c0.189,0.5895,0.3176,1.1983,0.2104,2.0843
		C1456.8711,460.7975,1440.2814,454.528,1419.2866,454.8588z"/>
	<path d="M1465.6691,1329.5436c-1.2059-0.4814-1.9457-0.5701-2.3809-0.9812c-7.5457-7.1292-17.2954-8.4591-26.8538-10.5035
		c-12.5913-2.6935-25.2567-5.2632-36.6312-11.8132c-2.5321-1.4581-4.6534-3.2568-5.7609-5.9724
		c-1.6533-4.0543,1.4911-8.1129,5.7303-7.3123c11.554,2.1821,22.5542,6.3397,33.776,9.7004
		c7.0811,2.1206,14.0409,4.649,21.1342,6.7242c3.0111,0.8809,4.9564,2.517,5.9073,5.395
		C1462.1638,1319.5442,1464.9186,1323.936,1465.6691,1329.5436z"/>
	<path d="M1509.054,583.3624c-0.02-8.129,4.0691-13.1129,12.0164-14.6237c6.4413-1.2244,15.0778,3.9128,17.6514,10.2658
		c2.7539,6.7985,0.6205,13.153-1.9266,19.2477c-1.6871,4.037-11.3209,5.1313-16.8723,2.1093
		C1513.2737,596.7422,1508.9944,591.3698,1509.054,583.3624z"/>
	<path d="M1523.2045,122.3904c-3.4337,0.9364-5.0253-1.8356-6.007-4.999c-0.9994-3.2211,2.1881-3.7774,3.913-4.8268
		c13.51-8.2191,27.1746-16.1842,40.6793-24.4119c3.4346-2.0925,6.5494-2.7284,10.0503-0.4844
		c0.6567,0.421,1.7273,0.2259,2.3435,0.6758c2.3542,1.719,7.2036,0.9078,7.2834,3.9739c0.073,2.8039-4.1788,0.9585-6.3923,1.8648
		c-9.1714,3.7552-16.3346,10.5665-24.5397,15.78c-6.8147,4.3301-13.3187,9.2016-21.2338,11.6046
		C1527.4757,122.1217,1525.7488,122.1881,1523.2045,122.3904z"/>
	<path d="M1517.699,286.4433c-12.3074,8.1385-31.1272,4.949-39.6633-6.218c-3.6569-4.7839-6.4036-10.0006-8.5703-15.6298
		c-1.1364-2.9522-0.8807-5.2463,1.3171-7.2151c2.1227-1.9013,4.6481-1.4483,6.9924-0.3282
		c7.9404,3.7941,14.1451,9.9109,20.4834,15.7664C1504.0687,278.1866,1509.1981,284.3712,1517.699,286.4433z"/>
	<path d="M1440.3375,51.5678c-3.4543,10.991-2.4542,21.3463-1.16,31.8657c1.2358,10.0453,1.0518,20.1917-1.1614,30.155
		c-0.4163,1.874-1.5695,3.6271-2.5825,5.316c-1.5842,2.6414-4.1615,2.2355-6.6868,1.9415
		c-2.8622-0.3332-2.1772-2.6642-2.1935-4.2446c-0.0887-8.622,0.0316-17.2461,0.0514-25.8695
		c0.0164-7.154,0.2446-14.3204-0.1049-21.4576c-0.2196-4.4832,0.675-7.9416,4.5901-10.553
		C1434.324,56.5642,1437.2661,53.969,1440.3375,51.5678z"/>
	<path d="M999.3057,849.7258c-0.302-1.6381,0.6584-2.3235,1.8389-3.147C1001.1106,848.1035,1000.4948,848.9999,999.3057,849.7258z"
		/>
</g>
</svg>
