<svg width="256" height="256" version="1.1" viewBox="0 0 67.733 67.733" xmlns="http://www.w3.org/2000/svg"><g transform="translate(0,-229.27)"><g transform="matrix(.22355 0 0 .22355 10.236 182.11)" stroke-linecap="round" stroke-width="1px"><g transform="translate(-181.39,140.05)"><path d="m340.81 322.73 3.28-14.37-2.54 10.7-1.41 15.77z" fill="#040200" stroke="#040200"/><path d="m258.67 366.64-9.19-6.2 13.13 8.01 10.45 2.84z" stroke="#000"/><path d="m323.63 360.89 10.45-11.68-6.82 9.11-12.15 8.66z" fill="#120a01" stroke="#120a01"/><path d="m310.45 368.74 13.18-7.85-8.52 6.09-14.39 4.47z" fill="#0e0801" stroke="#0e0801"/><path d="m287.09 219.88-10.21-0.61-4.93 2.2 9.9-2.74z" stroke="#000"/><path d="m280.88 372.73-0.39-2.04 6.08 2.28 0.52-1.32z" fill="#0c0601" stroke="#0c0601"/><path d="m286.57 372.97 5.14-2.22 0.62 2.05-5.24-1.15z" fill="#0e0601" stroke="#0e0601"/><path d="m287.09 219.88 6.21-1.08 10.6 2.87-5.86-2.28z" fill="#040200" stroke="#040200"/><path d="m234.04 334.19-1.41-12.11 5.35 14.82 1.47 11.74z" fill="#4c2605" stroke="#4c2605"/><path d="m343.03 298.03 1.06-14.16-0.28 10.32 0.28 14.17z" fill="#120801" stroke="#120801"/><path d="m287.09 219.88-13.63 0.2-9.73 2.72 13.15-3.53z" fill="#1c0e02" stroke="#1c0e02"/><path d="m327.26 233.71-11.75-8.82 9.19 6.2 10.03 11.81z" fill="#040200" stroke="#040200"/><path d="m334.81 337.49 6-14.76-0.67 12.1-6.06 14.38z" fill="#6e3607" stroke="#6e3607"/><path d="m287.09 219.88 10.95-0.49 13.53 3.69-10.45-2.83z" fill="#221002" stroke="#221002"/><path d="m340.81 273.13-0.67-15.78 1.41 12.11 2.54 14.41z" fill="#1e1002" stroke="#1e1002"/><path d="m262.61 368.45-4.84-5.76 12.5 7.18 5.87 2.27z" fill="#4a2605" stroke="#4a2605"/><path d="m230.09 307.67 0.28-10.32 4.02 13.39-1.76 11.34z" fill="#5c2e06" stroke="#5c2e06"/><path d="m239.45 348.64-1.47-11.74 8.32 14.4 3.18 9.14z" fill="#824008" stroke="#824008"/><path d="m240.1 242.33 6.82-9.11-7.47 12.34-5.41 11.15z" fill="#1a0e02" stroke="#1a0e02"/><path d="m314.43 363.03-3.98 5.71-13.15 3.53 4.93-2.2z" fill="#562c05" stroke="#562c05"/><path d="m249.48 360.44-3.18-9.14 11.47 11.39 4.84 5.76z" fill="#7e4008" stroke="#7e4008"/><path d="m287.09 219.88-14.97 1.19-13.06 3.48 14.4-4.47z" fill="#402004" stroke="#402004"/><path d="m326.02 351.78 8.79-14.29-0.73 11.72-10.45 11.68z" fill="#9e4e0a" stroke="#9e4e0a"/><path d="m338.29 311.36 4.74-13.33 1.06 10.33-3.28 14.37z" fill="#7e3e08" stroke="#7e3e08"/><path d="m334.08 246.13-6.82-12.42 7.47 9.19 5.41 14.45z" fill="#3a1c04" stroke="#3a1c04"/><path d="m287.09 219.88 14.03 0.37 14.39 4.64-13.45-3.64z" fill="#462404" stroke="#462404"/><path d="m230.09 283.18 2.54-10.7 1.76 15.1-4.02 9.77z" fill="#6a3607" stroke="#6a3607"/><path d="m259.06 224.55 13.06-3.48-13.45 5.42-11.75 6.73z" fill="#482404" stroke="#482404"/><path d="m314.43 363.03 11.59-11.25-2.39 9.11-13.18 7.85z" fill="#944a09" stroke="#944a09"/><path d="m270.27 369.87 0.2-5.54 10.02 6.36 0.39 2.04z" fill="#7c3e08" stroke="#7c3e08"/><path d="m315.11 226.83-13.05-5.58 13.45 3.64 11.75 8.82z" fill="#562c05" stroke="#562c05"/><path d="m291.71 370.75 9.41-6.23 1.11 5.55-9.9 2.73z" fill="#824208" stroke="#824208"/><path d="m232.63 322.08 1.76-11.34 6.98 13.13-3.39 13.03z" fill="#c4620c" stroke="#c4620c"/><path d="m338.29 288.21 2.52-15.08 3.28 10.74-1.06 14.16z" fill="#8e4609" stroke="#8e4609"/><path d="m234.04 256.71 5.41-11.15-1.47 15.36-5.35 11.56z" fill="#783c07" stroke="#783c07"/><path d="m287.09 219.88-14.03 2.18-14.39 4.43 13.45-5.42z" fill="#663406" stroke="#663406"/><path d="m280.49 370.69 5.19-5.68 6.03 5.74-5.14 2.22z" fill="#904809" stroke="#904809"/><path d="m287.09 219.88 14.97 1.37 13.05 5.58-14.39-4.6z" fill="#6e3607" stroke="#6e3607"/><path d="m246.92 233.22 11.75-6.73-9.19 9.45-10.03 9.62z" fill="#7a3c08" stroke="#7a3c08"/><path d="m330.73 324.41 7.56-13.05 2.52 11.37-6 14.76z" fill="#e4720e" stroke="#e4720e"/><path d="m334.81 261.51-0.73-15.38 6.06 11.22 0.67 15.78z" fill="#9a4c0a" stroke="#9a4c0a"/><path d="m230.37 297.35 4.02-9.77 4.43 13.34-4.43 9.82z" fill="#be5e0c" stroke="#be5e0c"/><path d="m323.63 236.39-8.52-9.56 12.15 6.88 6.82 12.42z" fill="#924809" stroke="#924809"/><path d="m237.98 336.9 3.39-13.03 7.89 15.22-2.96 12.21z" fill="#ff8010" stroke="#ff8010"/><path d="m257.77 362.69 1.36-9.01 11.34 10.65-0.2 5.54z" fill="#e0700e" stroke="#e0700e"/><path d="m287.09 219.88-10.95 3.04-13.53 5.4 10.45-6.26z" fill="#8c4609" stroke="#8c4609"/><path d="m287.09 219.88 13.63 2.35 9.73 6.37-13.15-5.55z" fill="#924809" stroke="#924809"/><path d="m258.67 226.49 14.39-4.43-10.45 6.26-13.13 7.62z" fill="#9e4e0a" stroke="#9e4e0a"/><path d="m301.12 364.52 11.14-10.52 2.17 9.03-12.2 7.04z" fill="#ee780f" stroke="#ee780f"/><path d="m246.3 351.3 2.96-12.21 9.87 14.59-1.36 9.01z" fill="#ff8a11" stroke="#ff8a11"/><path d="m322.36 339.54 8.37-15.13 4.08 13.08-8.79 14.29z" fill="#ff8e12" stroke="#ff8e12"/><path d="m232.63 272.48 5.35-11.56 3.39 16.49-6.98 10.17z" fill="#de6e0e" stroke="#de6e0e"/><path d="m333.15 301.5 5.14-13.29 4.74 9.82-4.74 13.33z" fill="#de700e" stroke="#de700e"/><path d="m310.45 228.6-9.73-6.37 14.39 4.6 8.52 9.56z" fill="#ac560b" stroke="#ac560b"/><path d="m287.09 219.88-6.21 3.63-10.61 6.23 5.87-6.82z" fill="#a8540b" stroke="#a8540b"/><path d="m312.26 354 10.1-14.46 3.66 12.24-11.59 11.25z" fill="#ff9413" stroke="#ff9413"/><path d="m239.45 245.56 10.03-9.62-3.18 12.99-8.32 11.99z" fill="#d0680d" stroke="#d0680d"/><path d="m287.09 219.88 10.21 3.17 4.93 6.88-9.9-6.35z" fill="#ac560b" stroke="#ac560b"/><path d="m330.73 277.95 4.08-16.44 6 11.62-2.52 15.08z" fill="#fc7e10" stroke="#fc7e10"/><path d="m234.39 310.74 4.43-9.82 7.53 12.49-4.98 10.46z" fill="#ff8210" stroke="#ff8210"/><path d="m270.47 364.33 5.62-8.9 9.59 9.58-5.19 5.68z" fill="#ff8a11" stroke="#ff8a11"/><path d="m287.09 219.88-0.52 3.86-6.08 6.79 0.39-7.02z" fill="#b85c0c" stroke="#b85c0c"/><path d="m287.09 219.88 5.24 3.7-0.62 7.02-5.14-6.86z" fill="#ba5c0c" stroke="#ba5c0c"/><path d="m285.68 365.01 9.1-9.47 6.34 8.98-9.41 6.23z" fill="#ff8c12" stroke="#ff8c12"/><path d="m326.02 249.42-2.39-13.03 10.45 9.74 0.73 15.38z" fill="#ec760f" stroke="#ec760f"/><path d="m325.08 313.88 8.07-12.38 5.14 9.86-7.56 13.05z" fill="#ff9212" stroke="#ff9212"/><path d="m234.39 287.58 6.98-10.17 4.98 13.84-7.53 9.67z" fill="#ff8e12" stroke="#ff8e12"/><path d="m262.61 228.32 13.53-5.4-5.87 6.82-12.5 8.55z" fill="#e8740f" stroke="#e8740f"/><path d="m249.48 235.94 13.13-7.62-4.84 9.97-11.47 10.64z" fill="#fc7e10" stroke="#fc7e10"/><path d="m241.37 323.87 4.98-10.46 9.4 13.13-6.49 12.55z" fill="#ffa214" stroke="#ffa214"/><path d="m314.43 238.64-12.2-8.71-4.93-6.88 13.15 5.55z" fill="#f47a0f" stroke="#f47a0f"/><path d="m237.98 260.92 8.32-11.99 2.96 15.7-7.89 12.78z" fill="#ff9212" stroke="#ff9212"/><path d="m259.13 353.68 6.36-11.68 10.6 13.43-5.62 8.9z" fill="#ffb617" stroke="#ffb617"/><path d="m314.43 238.64-3.98-10.04 13.18 7.79 2.39 13.03z" fill="#f81" stroke="#f81"/><path d="m325.08 291.73 5.65-13.78 7.56 10.26-5.14 13.29z" fill="#ff9c14" stroke="#ff9c14"/><path d="m325.08 313.88 5.65 10.53-8.37 15.13-7.06-12.64z" fill="#ffb016" stroke="#ffb016"/><path d="m249.26 339.09 6.49-12.55 9.74 15.46-6.36 11.68z" fill="#ffba17" stroke="#ffba17"/><path d="m294.78 355.54 10.52-13.3 6.96 11.76-11.14 10.52z" fill="#ffbe18" stroke="#ffbe18"/><path d="m322.36 265.07 3.66-15.65 8.79 12.09-4.08 16.44z" fill="#ffa014" stroke="#ffa014"/><path d="m305.3 342.24 10-15.34 7.06 12.64-10.1 14.46z" fill="#ffc418" stroke="#ffc418"/><path d="m270.27 229.74 10.61-6.23-0.39 7.02-10.02 9.3z" fill="#ff8e12" stroke="#ff8e12"/><path d="m276.09 355.43 9.14-11.76 9.55 11.87-9.1 9.47z" fill="#ffc819" stroke="#ffc819"/><path d="m238.82 300.92 7.53-9.67 7.59 12.48-7.59 9.68z" fill="#ffac15" stroke="#ffac15"/><path d="m291.71 230.6 0.62-7.02 9.9 6.35-1.11 10.08z" fill="#ff9012" stroke="#ff9012"/><path d="m280.49 230.53 6.08-6.79 5.14 6.86-6.03 9.8z" fill="#ff9613" stroke="#ff9613"/><path d="m241.37 277.41 7.89-12.78 6.49 15.44-9.4 11.18z" fill="#ffb016" stroke="#ffb016"/><path d="m246.3 248.93 11.47-10.64 1.36 13.02-9.87 13.32z" fill="#ffae16" stroke="#ffae16"/><path d="m325.08 313.88-8.14-9.77 8.14-12.38 8.07 9.77z" fill="#ffb817" stroke="#ffb817"/><path d="m257.77 238.29 12.5-8.55 0.2 10.09-11.34 11.48z" fill="#ffae16" stroke="#ffae16"/><path d="m246.35 313.41 7.59-9.68 9.9 12.46-8.09 10.35z" fill="#ffc018" stroke="#ffc018"/><path d="m312.26 251.63 2.17-12.99 11.59 10.78-3.66 15.65z" fill="#ffba17" stroke="#ffba17"/><path d="m325.08 291.73-9.78-11.3 7.06-15.36 8.37 12.88z" fill="#ffbc18" stroke="#ffbc18"/><path d="m265.49 342 9.08-12.15 10.66 13.82-9.14 11.76z" fill="#ffe01c" stroke="#ffe01c"/><path d="m301.12 240.01 1.11-10.08 12.2 8.71-2.17 12.99z" fill="#ffb617" stroke="#ffb617"/><path d="m285.23 343.67 10.59-13.69 9.48 12.26-10.52 13.3z" fill="#ffe41c" stroke="#ffe41c"/><path d="m255.75 326.54 8.09-10.35 10.73 13.66-9.08 12.15z" fill="#ffd41a" stroke="#ffd41a"/><path d="m306.7 316.45 10.24-12.34 8.14 9.77-9.78 13.02z" fill="#ffca19" stroke="#ffca19"/><path d="m295.82 329.98 10.88-13.53 8.6 10.45-10 15.34z" fill="#ffdc1b" stroke="#ffdc1b"/><path d="m246.35 291.25 9.4-11.18 8.09 12.96-9.9 10.7z" fill="#ffcc19" stroke="#ffcc19"/><path d="m249.26 264.63 9.87-13.32 6.36 14.71-9.74 14.05z" fill="#ffca19" stroke="#ffca19"/><path d="m270.47 239.83 10.02-9.3 5.19 9.87-9.59 11.95z" fill="#ffca19" stroke="#ffca19"/><path d="m306.7 293.29 8.6-12.86 9.78 11.3-8.14 12.38z" fill="#ffd61b" stroke="#ffd61b"/><path d="m285.68 240.4 6.03-9.8 9.41 9.41-6.34 12.45z" fill="#ffcc19" stroke="#ffcc19"/><path d="m305.3 266.26 6.96-14.63 10.1 13.44-7.06 15.36z" fill="#ffd61b" stroke="#ffd61b"/><path d="m274.57 329.85 10.52-11.99 10.73 12.12-10.59 13.69z" fill="#fff21e" stroke="#fff21e"/><path d="m253.94 303.73 9.9-10.7 10.15 12.4-10.15 10.76z" fill="#ffe21c" stroke="#ffe21c"/><path d="m259.13 251.31 11.34-11.48 5.62 12.52-10.6 13.67z" fill="#ffde1c" stroke="#ffde1c"/><path d="m263.84 316.19 10.15-10.76 11.1 12.43-10.52 11.99z" fill="#ffee1e" stroke="#ffee1e"/><path d="m296.25 305.57 10.45-12.28 10.24 10.82-10.24 12.34z" fill="#ffe81d" stroke="#ffe81d"/><path d="m294.78 252.46 6.34-12.45 11.14 11.62-6.96 14.63z" fill="#ffe41d" stroke="#ffe41d"/><path d="m285.09 317.86 11.16-12.29 10.45 10.88-10.88 13.53z" fill="#fff21e" stroke="#fff21e"/><path d="m255.75 280.07 9.74-14.05 9.08 14.23-10.73 12.78z" fill="#ffe01c" stroke="#ffe01c"/><path d="m295.82 280.38 9.48-14.12 10 14.17-8.6 12.86z" fill="#ffe81d" stroke="#ffe81d"/><path d="m276.09 252.35 9.59-11.95 9.1 12.06-9.55 13.73z" fill="#fff21e" stroke="#fff21e"/><path d="m263.84 293.03 10.73-12.78 10.52 13.12-11.1 12.06z" fill="#fff61f" stroke="#fff61f"/><path d="m273.99 305.43 11.1-12.06 11.16 12.2-11.16 12.29z" fill="#fffc1f" stroke="#fffc1f"/><path d="m265.49 266.02 10.6-13.67 9.14 13.84-10.66 14.06z" fill="#fff61f" stroke="#fff61f"/><path d="m285.09 293.37 10.73-12.99 10.88 12.91-10.45 12.28z" fill="#fffa1f" stroke="#fffa1f"/><path d="m285.23 266.19 9.55-13.73 10.52 13.8-9.48 14.12z" fill="#fffa1f" stroke="#fffa1f"/><path d="m274.57 280.25 10.66-14.06 10.59 14.19-10.73 12.99z" fill="#fffe20" stroke="#fffe20"/></g><g transform="matrix(1.3059,0,0,2.0323,-269.08,-81.108)"><path d="m273.6 190.51-7.25-14.12 1.58 1.83 6.8 13.59z" fill="#070d02" stroke="#070d02"/><path d="m298.84 192.02 6.51-13.48 2.61-1.8-7.27 14z" fill="#112304" stroke="#112304"/><path d="m266.35 176.39-12.18-32.49 13.76 34.32z" fill="#091302" stroke="#091302"/><path d="m273.92 191.42-6.89-13.63 5.53 1.59 5.29 13.18z" fill="#30600c" stroke="#30600c"/><path d="m305.35 178.54 14.02-34.09-11.41 32.29z" fill="#152905" stroke="#152905"/><path d="m295.31 192.7 4.78-13.09 6.4-1.49-6.63 13.52z" fill="#39720e" stroke="#39720e"/><path d="m276.23 192.25-5.47-13.21 8.64 1.1 2.98 12.9z" fill="#50a114" stroke="#50a114"/><path d="m290.53 193.1 2.32-12.84 9.22-0.96-4.98 13.12z" fill="#57ad16" stroke="#57ad16"/><path d="m267.03 177.79-8.48-31.78 14.01 33.37z" fill="#34690d" stroke="#34690d"/><path d="m280.2 192.86-3.23-12.91 10.44 0.45 0.22 12.78z" fill="#63c619" stroke="#63c619"/><path d="m285.22 193.16-0.49-12.78 10.64-0.28-2.58 12.86z" fill="#65cb19" stroke="#65cb19"/><path d="m300.09 179.61 13.73-33.13-7.33 31.64z" fill="#3e7c0f" stroke="#3e7c0f"/><path d="m270.76 179.04-3.49-31.37 12.13 32.47z" fill="#56ad16" stroke="#56ad16"/><path d="m292.85 180.26 11.35-32.27-2.13 31.31z" fill="#5db917" stroke="#5db917"/><path d="m276.97 179.95 2.04-31.32 8.4 31.77z" fill="#6ad41a" stroke="#6ad41a"/><path d="m284.73 180.38 7.24-31.64 3.4 31.36z" fill="#6cd81b" stroke="#6cd81b"/></g><g transform="matrix(1.3059,0,0,1.7223,-269.08,-21.229)"><path d="m278.54 187.21-0.78-0.91-5.01-9.76 1.09 1.27z" fill="#070d02" stroke="#070d02"/><path d="m296.5 186.46-1.29 0.89 4.51-9.32 1.8-1.25z" fill="#112304" stroke="#112304"/><path d="m272.75 176.54-8.42-22.47 9.51 23.74z" fill="#091302" stroke="#091302"/><path d="m280.7 187.72-2.72-0.78-4.77-9.43 3.83 1.1z" fill="#30600c" stroke="#30600c"/><path d="m299.72 178.03 9.69-23.58-7.89 22.33z" fill="#152905" stroke="#152905"/><path d="m295.92 187.09-3.15 0.73 3.31-9.05 4.43-1.03z" fill="#39720e" stroke="#39720e"/><path d="m283.83 188.05-4.25-0.54-3.79-9.14 5.98 0.77z" fill="#50a114" stroke="#50a114"/><path d="m294 187.63-4.53 0.47 1.6-8.88 6.38-0.66z" fill="#57ad16" stroke="#57ad16"/><path d="m273.21 177.51-5.86-21.98 9.69 23.08z" fill="#34690d" stroke="#34690d"/><path d="m287.46 188.15-5.13-0.22-2.24-8.93 7.22 0.31z" fill="#63c619" stroke="#63c619"/><path d="m291.03 188-5.23 0.14-0.34-8.84 7.36-0.19z" fill="#65cb19" stroke="#65cb19"/><path d="m296.08 178.77 9.49-22.91-5.06 21.88z" fill="#3e7c0f" stroke="#3e7c0f"/><path d="m275.79 178.37-2.41-21.69 8.39 22.46z" fill="#56ad16" stroke="#56ad16"/><path d="m291.07 179.22 7.85-22.32-1.47 21.66z" fill="#5db917" stroke="#5db917"/><path d="m280.09 179 1.41-21.66 5.81 21.97z" fill="#6ad41a" stroke="#6ad41a"/><path d="m285.46 179.3 5.01-21.88 2.35 21.69z" fill="#6cd81b" stroke="#6cd81b"/></g><g transform="matrix(1.1349,0,0,1.2109,-220.04,82.077)"><path d="m265.36 185.04 7.71 15.41-1.27-1.48-8.23-16.01z" fill="#070d02" stroke="#070d02"/><path d="m310.76 183.36-8.24 15.87-2.11 1.45 7.38-15.28z" fill="#112304" stroke="#112304"/><path d="m263.57 182.96-13.81-36.84 15.6 38.92z" fill="#091302" stroke="#091302"/><path d="m270.61 186.35 6 14.94-4.46-1.28-7.81-15.47z" fill="#30600c" stroke="#30600c"/><path d="m307.79 185.4 15.9-38.66-12.93 36.62z" fill="#152905" stroke="#152905"/><path d="m309.09 184.92-7.51 15.34-5.17 1.2 5.42-14.84z" fill="#39720e" stroke="#39720e"/><path d="m278.36 187.22 3.39 14.62-6.97-0.9-6.21-14.98z" fill="#50a114" stroke="#50a114"/><path d="m304.08 186.26-5.65 14.88-7.44 0.77 2.63-14.56z" fill="#57ad16" stroke="#57ad16"/><path d="m264.34 184.54-9.62-36.03 15.89 37.84z" fill="#34690d" stroke="#34690d"/><path d="m287.45 187.51 0.25 14.49-8.42-0.37-3.66-14.64z" fill="#63c619" stroke="#63c619"/><path d="m296.48 187.17-2.92 14.59-8.59 0.22-0.56-14.5z" fill="#65cb19" stroke="#65cb19"/><path d="m301.83 186.62 15.57-37.58-8.31 35.88z" fill="#3e7c0f" stroke="#3e7c0f"/><path d="m268.57 185.96-3.96-35.56 13.75 36.82z" fill="#56ad16" stroke="#56ad16"/><path d="m293.62 187.35 12.87-36.6-2.41 35.51z" fill="#5db917" stroke="#5db917"/><path d="m275.62 186.99 2.3-35.51 9.53 36.03z" fill="#6ad41a" stroke="#6ad41a"/><path d="m284.41 187.48 8.22-35.87 3.85 35.56z" fill="#6cd81b" stroke="#6cd81b"/></g><g transform="matrix(1.3059,0,0,1.0457,-269.08,123.52)"><path d="m271.91 210.78-8.19-16.08 1.22 2.1 7.84 15.48z" fill="#010300" stroke="#010300"/><path d="m300.03 212.73 7.2-15.22 3.52-2.02-8.22 15.8z" fill="#172d06" stroke="#172d06"/><path d="m249.54 157.75 15.4 39.05-1.22-2.1z" fill="#040801" stroke="#040801"/><path d="m271.98 211.83-7.92-15.53 5.77 1.86 6.26 14.99z" fill="#2b570b" stroke="#2b570b"/><path d="m323.22 158.98-12.47 36.51-3.52 2.02z" fill="#1a3406" stroke="#1a3406"/><path d="m295.82 213.47 5.12-14.8 7.72-1.63-7.35 15.27z" fill="#3d7b0f" stroke="#3d7b0f"/><path d="m274.35 212.78-6.46-15.03 9.45 1.33 3.73 14.65z" fill="#4d9a13" stroke="#4d9a13"/><path d="m290.28 213.88 2.26-14.54 10.75-1-5.37 14.83z" fill="#59b216" stroke="#59b216"/><path d="m253.85 160.18 15.98 37.98-5.77-1.86z" fill="#305f0c" stroke="#305f0c"/><path d="m278.66 213.51-4-14.67 11.68 0.6 0.63 14.5z" fill="#62c418" stroke="#62c418"/><path d="m284.26 213.9-0.95-14.51 12.14-0.21-2.56 14.57z" fill="#66cc1a" stroke="#66cc1a"/><path d="m316.31 161.23-7.65 35.81-7.72 1.63z" fill="#428511" stroke="#428511"/><path d="m263.21 162.15 14.13 36.93-9.45-1.33z" fill="#53a615" stroke="#53a615"/><path d="m304.95 162.84-1.66 35.5-10.75 1z" fill="#5fbf18" stroke="#5fbf18"/><path d="m276.21 163.34 10.13 36.1-11.68-0.6z" fill="#68d11a" stroke="#68d11a"/><path d="m290.87 163.59 4.58 35.59-12.14 0.21z" fill="#6dda1b" stroke="#6dda1b"/></g><g transform="matrix(1.3059,0,0,1.0064,-269.56,136.19)"><path d="m273.67 223.42-7.21-14 1.72 1.82 6.71 13.48z" fill="#081002" stroke="#081002"/><path d="m298.85 224.86 6.51-13.39 2.45-1.8-7.22 13.92z" fill="#102004" stroke="#102004"/><path d="m268.18 211.24-1.72-1.82-11.98-32.23z" fill="#0b1603" stroke="#0b1603"/><path d="m274.06 224.33-6.81-13.52 5.62 1.57 5.18 13.07z" fill="#31630c" stroke="#31630c"/><path d="m307.81 209.67-2.45 1.8 13.89-33.89z" fill="#132605" stroke="#132605"/><path d="m295.4 225.55 4.82-13.01 6.24-1.49-6.62 13.44z" fill="#38700e" stroke="#38700e"/><path d="m276.42 225.15-5.37-13.11 8.67 1.08 2.87 12.79z" fill="#51a314" stroke="#51a314"/><path d="m290.69 225.96 2.4-12.76 9.08-0.97-5.02 13.04z" fill="#56ac15" stroke="#56ac15"/><path d="m272.87 212.38-5.62-1.57-8.26-31.53z" fill="#366c0d" stroke="#366c0d"/><path d="m280.42 225.74-3.12-12.81 10.4 0.42 0.11 12.69z" fill="#64c719" stroke="#64c719"/><path d="m285.42 226.03-0.38-12.69 10.54-0.3-2.66 12.78z" fill="#65ca19" stroke="#65ca19"/><path d="m306.46 211.05-6.24 1.49 13.68-32.93z" fill="#3d790f" stroke="#3d790f"/><path d="m279.72 213.12-8.67-1.08-3.27-31.13z" fill="#57af16" stroke="#57af16"/><path d="m302.17 212.23-9.08 0.97 11.38-32.07z" fill="#5cb817" stroke="#5cb817"/><path d="m287.7 213.35-10.4-0.42 2.21-31.1z" fill="#6ad51b" stroke="#6ad51b"/><path d="m295.58 213.04-10.54 0.3 7.36-31.43z" fill="#6cd81b" stroke="#6cd81b"/></g><g transform="matrix(1.5427,0,0,2.1357,-339.75,-102.82)"><path d="m281.69 221.5-1.6-4.56 8.69-0.25z" fill="#1f3e08" stroke="#1f3e08"/><path d="m294.79 221.58-8.2-4.9 8.57 0.35z" fill="#1e3c08" stroke="#1e3c08"/><path d="m269.42 222.29 5.24-4.69 7.49-0.8z" fill="#183006" stroke="#183006"/><path d="m306.72 222.52-13.56-5.65 7.15 0.89z" fill="#162c05" stroke="#162c05"/><path d="m259.83 223.84 11.29-5.26 5.14-1.24z" fill="#0a1403" stroke="#0a1403"/><path d="m315.66 224.17-16.85-6.69 4.64 1.29z" fill="#070e02" stroke="#070e02"/></g></g></g></svg>
