<?xml version="1.0" encoding="UTF-8" standalone="no"?>
<!-- Created with Inkscape (http://www.inkscape.org/) -->

<svg
   xmlns:dc="http://purl.org/dc/elements/1.1/"
   xmlns:cc="http://creativecommons.org/ns#"
   xmlns:rdf="http://www.w3.org/1999/02/22-rdf-syntax-ns#"
   xmlns:svg="http://www.w3.org/2000/svg"
   xmlns="http://www.w3.org/2000/svg"
   xmlns:sodipodi="http://sodipodi.sourceforge.net/DTD/sodipodi-0.dtd"
   xmlns:inkscape="http://www.inkscape.org/namespaces/inkscape"
   id="svg2"
   version="1.1"
   inkscape:version="0.48.2 r9819"
   width="400"
   height="600"
   sodipodi:docname="daffodils.png">
  <metadata
     id="metadata8">
    <rdf:RDF>
      <cc:Work
         rdf:about="">
        <dc:format>image/svg+xml</dc:format>
        <dc:type
           rdf:resource="http://purl.org/dc/dcmitype/StillImage" />
        <dc:title></dc:title>
      </cc:Work>
    </rdf:RDF>
  </metadata>
  <defs
     id="defs6" />
  <sodipodi:namedview
     pagecolor="#ffffff"
     bordercolor="#666666"
     borderopacity="1"
     objecttolerance="10"
     gridtolerance="10"
     guidetolerance="10"
     inkscape:pageopacity="0"
     inkscape:pageshadow="2"
     inkscape:window-width="1361"
     inkscape:window-height="980"
     id="namedview4"
     showgrid="false"
     borderlayer="true"
     inkscape:showpageshadow="false"
     inkscape:zoom="0.9700586"
     inkscape:cx="357.34247"
     inkscape:cy="218.67922"
     inkscape:window-x="327"
     inkscape:window-y="11"
     inkscape:window-maximized="0"
     inkscape:current-layer="g4526" />
  <g
     id="g2987"
     transform="translate(-6.8675911,116.40783)"
     style="fill:#cd8fff;fill-opacity:1">
    <g
       id="g4500"
       transform="matrix(1.0882922,0,0,1.0377453,-1.3655835,-12.441634)">
      <g
         id="g4526">
        <rect
           style="fill:#24401a;fill-opacity:1;fill-rule:evenodd;stroke:#ffffff;stroke-width:0;stroke-linecap:round;stroke-linejoin:round;stroke-miterlimit:4;stroke-opacity:1;stroke-dasharray:none"
           id="rect4498"
           width="419.65045"
           height="121.25553"
           x="-18.197712"
           y="377.00644" />
        <rect
           style="fill:#a3b059;fill-opacity:0.68691586;fill-rule:evenodd;stroke:#ffffff;stroke-width:0;stroke-linecap:round;stroke-linejoin:round;stroke-miterlimit:4;stroke-opacity:1;stroke-dasharray:none"
           id="rect4481"
           width="419.77939"
           height="503.26596"
           x="-17.890686"
           y="-126.23071" />
        <g
           id="g3969"
           transform="matrix(1.4964288,0.0156574,-0.00702303,1.6728832,-189.7164,-209.63004)">
          <g
             id="g3949">
            <g
               id="g3886"
               transform="matrix(0.79961638,0.02937457,-0.01754133,0.74715457,75.806207,55.348551)">
              <g
                 transform="matrix(0.77276252,-7.2662786e-4,-4.138901e-4,0.77000799,42.331773,98.373558)"
                 id="g3869">
                <path
                   inkscape:connector-curvature="0"
                   id="path3844"
                   d="m 223.33232,225.58026 0,-17.01464 -10.59201,-8.95083 c -20.40107,-17.21103 -34.85631,-52.45478 -33.41532,-81.44453 0.53617,-10.78638 1.2765,-12.67874 5.16992,-13.38595 4.17638,-0.75861 4.53942,0.16873 4.53942,11.77319 0,26.56888 11.08283,55.97021 26.48008,70.23581 4.69337,4.34843 9.46945,7.49531 10.65506,7.01554 1.18561,-0.47978 4.86877,-7.13851 8.13315,-14.83743 4.83006,-11.39142 6.10111,-17.90429 6.80917,-35.15822 0.68816,-16.76949 1.63616,-22.22477 4.72856,-25.80422 5.42447,-6.27864 7.65209,-1.1742 7.69185,17.65976 0.0378,17.89253 -5.55369,41.93112 -13.61833,58.30138 -5.56479,11.29579 -6.16202,14.59477 -7.12437,41.93183 54.42281,244.22336 -14.59842,250.68844 -9.45718,-10.32169 z"
                   style="fill:#548659;fill-opacity:1" />
                <path
                   id="path3822"
                   style="fill:#548659;fill-opacity:1"
                   d="m 223.51684,51.22383 -0.67002,-8.678866 -15.76131,-6.748096 c -11.50724,-4.936509 -17.47378,-6.770864 -22.07625,-6.746982 -8.51653,0.04428 -15.00237,-1.727081 -24.68014,-6.760086 -9.7598,-5.075673 -16.97503,-11.540131 -19.53879,-17.5515316 -2.38667,-5.59610932 -1.73914,-7.8828258 2.93338,-10.2146055 12.10208,-6.0394399 46.43141,10.775133 50.22293,24.5969091 1.02569,3.739117 2.01758,4.442716 14.48566,10.272459 7.36949,3.44576 13.44045,5.721628 13.4818,5.041694 0.14976,-2.46279 -5.53938,-25.7585418 -8.26665,-33.85267322 -2.67378,-7.93560218 -2.99529,-8.44382188 -7.8289,-11.75681278 -8.37353,-5.739259 -14.09233,-13.065609 -20.26629,-26.026702 -6.01904,-12.635767 -8.09003,-20.740149 -6.7121,-26.315297 2.41929,-9.788501 12.66631,-5.119938 24.13078,10.972088 9.55674,13.414264 15.94043,31.891416 13.52108,39.149903 -0.72025,2.160906 -0.009,4.9743667 3.62218,14.16244228 2.49304,6.30846692 5.64556,15.01654572 6.98987,19.35109072 1.3443,4.334527 2.62188,7.986619 2.84821,8.116891 0.22636,0.130199 2.50623,-4.472781 5.05821,-10.224888 l 4.63652,-10.4519798 -2.43199,-5.7869074 c -5.03495,-11.9101328 -15.32676,-39.2081098 -7.43367,-50.9384678 4.41516,-6.561611 5.13623,10.125659 5.37448,5.324788 2.06267,-41.56295 21.80188,-9.778889 23.17945,-5.135783 4.82358,16.257744 -0.67093,47.1001434 -9.81756,54.997219 -1.4642,1.2641772 -5.91131,9.448731 -9.8432,18.213274 l -7.1313,15.941106 1.10893,10.384988 c 49.5043,296.924776 7.55557,503.070536 14.9232,246.813496 0.85686,-29.80272 0.17433,39.26098 -9.00027,-143.35608 -1.93958,-38.60685 -6.20529,-56.585878 -15.05824,-102.79259 z"
                   inkscape:connector-curvature="0"
                   inkscape:transform-center-x="3.3053334"
                   inkscape:transform-center-y="33.563742"
                   sodipodi:nodetypes="cccsssssscssssssssccccsssscccssc" />
                <path
                   style="fill:#548659;fill-opacity:1"
                   d="m 313.34228,91.343634 c -17.54576,5.164259 -36.08522,87.251026 -42.69297,93.178296 -0.95926,-0.57545 -9.61417,-41.94641 -12.25531,-51.18057 -3.90787,-13.66297 -4.93625,-21.47456 -5.50912,-42.169088 -0.55677,-20.113465 -1.32377,-26.656584 -3.82576,-30.949806 -4.3888,-7.530661 -6.1911,-1.408342 -6.22328,21.181273 -0.0306,21.460461 4.49335,50.292551 11.01825,69.927201 4.50233,13.54827 4.98554,17.50509 5.76415,50.29341 -37.61458,273.57346 -4.70647,283.27026 6.06008,66.30138 1.4838,-29.9019 4.55207,-51.47228 16.2424,-90.95036 7.56796,-25.55686 24.88793,-57.17154 31.42156,-85.631736 z"
                   id="path3842"
                   inkscape:connector-curvature="0"
                   sodipodi:nodetypes="ccssssscssc" />
                <g
                   id="g3853"
                   transform="matrix(0.7531736,-0.00150573,-8.5397051e-4,0.69652381,27.316176,-10.920365)">
                  <path
                     id="path3838"
                     d="m 201.82207,175.91232 c -4.94585,0.22514 -9.86059,2.53101 -14.03137,6.99534 -4.75184,5.08627 -5.36491,16.68623 -1.17945,22.89759 1.68817,2.50532 5.11437,5.62232 7.60541,6.91402 8.43957,4.37625 18.71486,1.38661 25.21582,-7.32072 3.58713,-4.80463 3.5654,-15.22345 -0.0406,-20.09132 -4.81956,-6.50596 -11.21077,-9.68439 -17.56973,-9.39491 z"
                     style="fill:#ffdd35;fill-opacity:1"
                     inkscape:connector-curvature="0" />
                  <g
                     id="g3848">
                    <path
                       style="fill:#fffd47;fill-opacity:1"
                       d="m 179.4532,135.60767 c 5.29449,-0.33179 7.77342,1.62085 21.40231,10.12959 28.05658,21.27877 30.1445,1.9202 49.79129,-0.4499 3.83604,7.70846 5.63474,15.90582 5.1046,21.27077 l -1.70817,13.42131 9.51693,10.24903 c 10.99679,11.83695 13.26213,15.4982 12.20121,19.72527 -0.90174,3.59276 -11.94596,10.67845 -20.45735,13.13663 l -5.77523,1.6675 -2.80628,10.69638 c -3.33279,12.65061 -6.84548,18.74309 -13.25864,23.10095 -5.8011,3.94193 -6.31644,3.92555 -11.95719,0.16269 -2.49251,-1.66275 -7.93236,-4.93561 -12.07919,-7.28006 l -7.52408,-4.22975 -12.03852,3.37567 c -24.19939,6.86537 -26.19848,5.71885 -26.31392,-15.00749 l -0.0813,-14.35675 -4.47376,-3.37565 c -9.23052,-6.93321 -21.91061,-30.44566 -21.17317,-33.1978 0.99932,-3.72954 11.61977,-2.49648 23.2067,-8.85569 l 11.84554,-4.43051 -1.14915,-15.57947 c 0.82143,-8.21902 2.14709,-16.15076 2.92829,-17.6104 0.82417,-1.53998 2.39256,-2.41145 4.79913,-2.56226 z"
                       id="path3840"
                       inkscape:connector-curvature="0"
                       sodipodi:nodetypes="ccccccscccssccccccscccccc" />
                    <path
                       sodipodi:nodetypes="ccc"
                       inkscape:connector-curvature="0"
                       style="fill:#e98714;fill-opacity:1"
                       d="m 217.32876,214.44249 c -14.69739,1.49838 -34.03052,-11.6941 -18.10249,-27.83789 20.98589,-19.84274 44.21123,16.70415 18.10249,27.83789 z"
                       id="path3814" />
                  </g>
                </g>
                <g
                   transform="matrix(0.69347415,-0.00146584,-8.4466941e-4,0.64954598,75.16267,-85.846841)"
                   id="g3941"
                   style="fill:#fffd47;fill-opacity:1">
                  <g
                     transform="translate(32.075069,-5.7524489)"
                     id="g3943"
                     style="fill:#fffd47;fill-opacity:1">
                    <path
                       style="fill:#fffd47;fill-opacity:1"
                       d="m 179.4532,135.60767 c 5.29449,-0.33179 7.77342,1.62085 21.40231,10.12959 28.05658,21.27877 30.1445,1.9202 49.79129,-0.4499 3.83604,7.70846 5.63474,15.90582 5.1046,21.27077 l -1.70817,13.42131 9.51693,10.24903 c 10.99679,11.83695 13.26213,15.4982 12.20121,19.72527 -0.90174,3.59276 -11.94596,10.67845 -20.45735,13.13663 l -5.77523,1.6675 -2.80628,10.69638 c -3.33279,12.65061 -6.84548,18.74309 -13.25864,23.10095 -5.8011,3.94193 -6.31644,3.92555 -11.95719,0.16269 -2.49251,-1.66275 -7.93236,-4.93561 -12.07919,-7.28006 l -7.52408,-4.22975 -12.03852,3.37567 c -24.19939,6.86537 -26.19848,5.71885 -26.31392,-15.00749 l -0.0813,-14.35675 -4.47376,-3.37565 c -9.23052,-6.93321 -21.91061,-30.44566 -21.17317,-33.1978 0.99932,-3.72954 11.61977,-2.49648 23.2067,-8.85569 l 11.84554,-4.43051 -1.14915,-15.57947 c 0.82143,-8.21902 2.14709,-16.15076 2.92829,-17.6104 0.82417,-1.53998 2.39256,-2.41145 4.79913,-2.56226 z"
                       id="path3945"
                       inkscape:connector-curvature="0"
                       sodipodi:nodetypes="ccccccscccssccccccscccccc" />
                    <path
                       sodipodi:nodetypes="ccc"
                       inkscape:connector-curvature="0"
                       style="fill:#e98714;fill-opacity:1"
                       d="m 217.32876,214.44249 c -14.69739,1.49838 -34.03052,-11.6941 -18.10249,-27.83789 20.98589,-19.84274 44.21123,16.70415 18.10249,27.83789 z"
                       id="path3947" />
                  </g>
                </g>
                <g
                   id="g3859"
                   transform="matrix(0.69178069,0.04378473,-0.03755388,0.64875737,141.6714,-25.477117)">
                  <g
                     id="g3863"
                     transform="translate(37.709302,-28.063869)">
                    <path
                       sodipodi:nodetypes="ccccccscccssccccccscccccc"
                       inkscape:connector-curvature="0"
                       id="path3865"
                       d="m 179.4532,135.60767 c 5.29449,-0.33179 7.77342,1.62085 21.40231,10.12959 28.05658,21.27877 30.1445,1.9202 49.79129,-0.4499 3.83604,7.70846 5.63474,15.90582 5.1046,21.27077 l -1.70817,13.42131 9.51693,10.24903 c 10.99679,11.83695 13.26213,15.4982 12.20121,19.72527 -0.90174,3.59276 -11.94596,10.67845 -20.45735,13.13663 l -5.77523,1.6675 -2.80628,10.69638 c -3.33279,12.65061 -6.84548,18.74309 -13.25864,23.10095 -5.8011,3.94193 -6.31644,3.92555 -11.95719,0.16269 -2.49251,-1.66275 -7.93236,-4.93561 -12.07919,-7.28006 l -7.52408,-4.22975 -12.03852,3.37567 c -24.19939,6.86537 -26.19848,5.71885 -26.31392,-15.00749 l -0.0813,-14.35675 -4.47376,-3.37565 c -9.23052,-6.93321 -21.91061,-30.44566 -21.17317,-33.1978 0.99932,-3.72954 11.61977,-2.49648 23.2067,-8.85569 l 11.84554,-4.43051 -1.14915,-15.57947 c 0.82143,-8.21902 2.14709,-16.15076 2.92829,-17.6104 0.82417,-1.53998 2.39256,-2.41145 4.79913,-2.56226 z"
                       style="fill:#fffd47;fill-opacity:1" />
                    <path
                       id="path3867"
                       d="m 217.32876,214.44249 c -14.69739,1.49838 -34.03052,-11.6941 -18.10249,-27.83789 20.98589,-19.84274 44.21123,16.70415 18.10249,27.83789 z"
                       style="fill:#e98714;fill-opacity:1"
                       inkscape:connector-curvature="0"
                       sodipodi:nodetypes="ccc" />
                  </g>
                </g>
              </g>
            </g>
          </g>
        </g>
      </g>
    </g>
  </g>
</svg>
